<svg version="1.1" viewBox="0.0 0.0 600.0 371.0" fill="none" stroke="none" stroke-linecap="square" stroke-miterlimit="10" width="600" height="371" xmlns:xlink="http://www.w3.org/1999/xlink" xmlns="http://www.w3.org/2000/svg"><path fill="#ffffff" d="M0 0L600.0 0L600.0 371.0L0 371.0L0 0Z" fill-rule="nonzero"/><path stroke="#333333" stroke-width="1.0" stroke-linecap="butt" d="M77.5 300.5L459.5 300.5" fill-rule="nonzero"/><path stroke="#cccccc" stroke-width="1.0" stroke-linecap="butt" d="M77.5 240.5L459.5 240.5" fill-rule="nonzero"/><path stroke="#cccccc" stroke-width="1.0" stroke-linecap="butt" d="M77.5 181.5L459.5 181.5" fill-rule="nonzero"/><path stroke="#cccccc" stroke-width="1.0" stroke-linecap="butt" d="M77.5 121.5L459.5 121.5" fill-rule="nonzero"/><path stroke="#cccccc" stroke-width="1.0" stroke-linecap="butt" d="M77.5 61.5L459.5 61.5" fill-rule="nonzero"/><clipPath id="id_0"><path d="M77.55 61.916668L459.61444 61.916668L459.61444 300.45L77.55 300.45L77.55 61.916668Z" clip-rule="nonzero"/></clipPath><path stroke="#980000" stroke-width="2.0" stroke-linecap="butt" clip-path="url(#id_0)" d="M141.2274 300.45L268.5822 300.45L395.93704 300.45" fill-rule="nonzero"/><path stroke="#ea4335" stroke-width="2.0" stroke-linecap="butt" clip-path="url(#id_0)" d="M141.2274 287.77792L268.5822 275.10583L395.93704 173.72917" fill-rule="nonzero"/><path stroke="#fbbc04" stroke-width="2.0" stroke-linecap="butt" clip-path="url(#id_0)" d="M141.2274 288.52335L268.5822 276.59668L395.93704 181.18333" fill-rule="nonzero"/><path stroke="#34a853" stroke-width="2.0" stroke-linecap="butt" clip-path="url(#id_0)" d="M141.2274 287.77792L268.5822 275.07602L395.93704 173.69936" fill-rule="nonzero"/><path stroke="#ff6d01" stroke-width="2.0" stroke-linecap="butt" clip-path="url(#id_0)" d="M141.2274 283.69302L268.5822 266.90625L395.93704 132.73125" fill-rule="nonzero"/><path stroke="#46bdc6" stroke-width="2.0" stroke-linecap="butt" clip-path="url(#id_0)" d="M141.2274 283.69302L268.5822 266.90625L395.93704 132.73125" fill-rule="nonzero"/><path stroke="#7baaf7" stroke-width="2.0" stroke-linecap="butt" clip-path="url(#id_0)" d="M141.2274 277.34207L268.5822 254.23416L395.93704 69.370834" fill-rule="nonzero"/><path fill="#980000" clip-path="url(#id_0)" d="M141.2274 295.95L145.12453 302.7L137.33029 302.7Z" fill-rule="nonzero"/><path fill="#980000" clip-path="url(#id_0)" d="M268.5822 295.95L272.47934 302.7L264.68512 302.7Z" fill-rule="nonzero"/><path fill="#980000" clip-path="url(#id_0)" d="M395.93704 295.95L399.83414 302.7L392.03992 302.7Z" fill-rule="nonzero"/><path fill="#ea4335" clip-path="url(#id_0)" d="M141.2274 283.27792L145.12453 290.02792L137.33029 290.02792Z" fill-rule="nonzero"/><path fill="#ea4335" clip-path="url(#id_0)" d="M268.5822 270.60583L272.47934 277.35583L264.68512 277.35583Z" fill-rule="nonzero"/><path fill="#ea4335" clip-path="url(#id_0)" d="M395.93704 169.22917L399.83414 175.97917L392.03992 175.97917Z" fill-rule="nonzero"/><path fill="#fbbc04" clip-path="url(#id_0)" d="M141.2274 284.02335L145.12453 290.77335L137.33029 290.77335Z" fill-rule="nonzero"/><path fill="#fbbc04" clip-path="url(#id_0)" d="M268.5822 272.09668L272.47934 278.84668L264.68512 278.84668Z" fill-rule="nonzero"/><path fill="#fbbc04" clip-path="url(#id_0)" d="M395.93704 176.68333L399.83414 183.43333L392.03992 183.43333Z" fill-rule="nonzero"/><path fill="#34a853" clip-path="url(#id_0)" d="M141.2274 283.27792L145.12453 290.02792L137.33029 290.02792Z" fill-rule="nonzero"/><path fill="#34a853" clip-path="url(#id_0)" d="M268.5822 270.57602L272.47934 277.32602L264.68512 277.32602Z" fill-rule="nonzero"/><path fill="#34a853" clip-path="url(#id_0)" d="M395.93704 169.19936L399.83414 175.94936L392.03992 175.94936Z" fill-rule="nonzero"/><path fill="#ff6d01" clip-path="url(#id_0)" d="M141.2274 279.19302L145.12453 285.94302L137.33029 285.94302Z" fill-rule="nonzero"/><path fill="#ff6d01" clip-path="url(#id_0)" d="M268.5822 262.40625L272.47934 269.15625L264.68512 269.15625Z" fill-rule="nonzero"/><path fill="#ff6d01" clip-path="url(#id_0)" d="M395.93704 128.23125L399.83414 134.98125L392.03992 134.98125Z" fill-rule="nonzero"/><path fill="#46bdc6" clip-path="url(#id_0)" d="M141.2274 279.19302L145.12453 285.94302L137.33029 285.94302Z" fill-rule="nonzero"/><path fill="#46bdc6" clip-path="url(#id_0)" d="M268.5822 262.40625L272.47934 269.15625L264.68512 269.15625Z" fill-rule="nonzero"/><path fill="#46bdc6" clip-path="url(#id_0)" d="M395.93704 128.23125L399.83414 134.98125L392.03992 134.98125Z" fill-rule="nonzero"/><path fill="#7baaf7" clip-path="url(#id_0)" d="M141.2274 272.84207L145.12453 279.59207L137.33029 279.59207Z" fill-rule="nonzero"/><path fill="#7baaf7" clip-path="url(#id_0)" d="M268.5822 249.73416L272.47934 256.48416L264.68512 256.48416Z" fill-rule="nonzero"/><path fill="#7baaf7" clip-path="url(#id_0)" d="M395.93704 64.870834L399.83414 71.620834L392.03992 71.620834Z" fill-rule="nonzero"/><path fill="#000000" d="M240.5041 349.45L240.5041 340.85626L243.7541 340.85626Q244.59785 340.85626 245.05098 340.9344Q245.6916 341.04376 246.11348 341.34064Q246.55098 341.6375 246.80098 342.16876Q247.0666 342.7 247.0666 343.34064Q247.0666 344.4344 246.36348 345.2Q245.67598 345.95 243.84785 345.95L241.64473 345.95L241.64473 349.45L240.5041 349.45ZM241.64473 344.95L243.86348 344.95Q244.97285 344.95 245.42598 344.54376Q245.89473 344.1219 245.89473 343.3719Q245.89473 342.84064 245.61348 342.46564Q245.34785 342.075 244.91035 341.95Q244.61348 341.8719 243.84785 341.8719L241.64473 341.8719L241.64473 344.95ZM248.36348 349.45L248.36348 343.23126L249.3166 343.23126L249.3166 344.16876Q249.67598 343.5125 249.97285 343.3094Q250.28535 343.09064 250.66035 343.09064Q251.1916 343.09064 251.73848 343.41876L251.3791 344.40314Q250.98848 344.16876 250.61348 344.16876Q250.2541 344.16876 249.97285 344.3875Q249.70723 344.59064 249.59785 344.96564Q249.41035 345.52814 249.41035 346.1844L249.41035 349.45L248.36348 349.45ZM252.3791 342.075L252.3791 340.85626L253.4416 340.85626L253.4416 342.075L252.3791 342.075ZM252.3791 349.45L252.3791 343.23126L253.4416 343.23126L253.4416 349.45L252.3791 349.45ZM259.4416 347.16876L260.47284 347.3094Q260.30096 348.3719 259.59784 348.98126Q258.8947 349.59064 257.8791 349.59064Q256.59784 349.59064 255.8166 348.7625Q255.05098 347.91876 255.05098 346.35626Q255.05098 345.35626 255.3791 344.60626Q255.72285 343.84064 256.3947 343.46564Q257.0822 343.09064 257.8947 343.09064Q258.8947 343.09064 259.53534 343.60626Q260.1916 344.10626 260.3791 345.0594L259.34784 345.21564Q259.2072 344.59064 258.8322 344.27814Q258.4572 343.95 257.92596 343.95Q257.1291 343.95 256.6291 344.52814Q256.1291 345.09064 256.1291 346.325Q256.1291 347.59064 256.61346 348.15314Q257.09784 348.71564 257.86346 348.71564Q258.48846 348.71564 258.8947 348.34064Q259.3166 347.96564 259.4416 347.16876ZM265.6291 347.45L266.72284 347.575Q266.47284 348.52814 265.7697 349.0594Q265.0666 349.59064 263.98846 349.59064Q262.6291 349.59064 261.8166 348.7469Q261.0197 347.90314 261.0197 346.3875Q261.0197 344.825 261.8322 343.96564Q262.6447 343.09064 263.92596 343.09064Q265.17596 343.09064 265.9572 343.9344Q266.7541 344.77814 266.7541 346.325Q266.7541 346.41876 266.7541 346.60626L262.11346 346.60626Q262.17596 347.6375 262.6916 348.1844Q263.2072 348.71564 263.98846 348.71564Q264.5666 348.71564 264.97284 348.41876Q265.3947 348.10626 265.6291 347.45ZM262.17596 345.7469L265.6447 345.7469Q265.5822 344.95 265.2541 344.5594Q264.73846 343.95 263.9416 343.95Q263.2072 343.95 262.7072 344.4344Q262.22284 344.91876 262.17596 345.7469ZM267.5822 349.59064L270.0666 340.71564L270.91034 340.71564L268.42596 349.59064L267.5822 349.59064ZM277.6447 346.4344L278.7697 346.73126Q278.41034 348.1219 277.48846 348.85626Q276.5666 349.59064 275.22284 349.59064Q273.8322 349.59064 272.9572 349.02814Q272.0822 348.46564 271.6291 347.40314Q271.17596 346.325 271.17596 345.09064Q271.17596 343.7469 271.6916 342.7469Q272.2072 341.7469 273.1447 341.23126Q274.09784 340.71564 275.23846 340.71564Q276.5197 340.71564 277.3947 341.3719Q278.28534 342.02814 278.6291 343.21564L277.5041 343.48126Q277.2072 342.54376 276.6291 342.1219Q276.0666 341.6844 275.2072 341.6844Q274.22284 341.6844 273.55096 342.16876Q272.8947 342.6375 272.61346 343.4344Q272.34784 344.23126 272.34784 345.09064Q272.34784 346.1844 272.66034 346.9969Q272.98846 347.8094 273.66034 348.21564Q274.3322 348.6219 275.1291 348.6219Q276.0822 348.6219 276.73846 348.075Q277.41034 347.52814 277.6447 346.4344ZM280.5041 349.45L280.5041 340.85626L283.47284 340.85626Q284.47284 340.85626 285.0041 340.98126Q285.73846 341.15314 286.2541 341.59064Q286.9416 342.16876 287.2697 343.075Q287.61346 343.96564 287.61346 345.10626Q287.61346 346.09064 287.3791 346.84064Q287.16034 347.59064 286.80096 348.09064Q286.4416 348.59064 286.0041 348.8719Q285.5822 349.15314 284.98846 349.3094Q284.3947 349.45 283.61346 349.45L280.5041 349.45ZM281.6447 348.4344L283.47284 348.4344Q284.3322 348.4344 284.8166 348.27814Q285.30096 348.1219 285.5822 347.825Q285.98846 347.4344 286.2072 346.7469Q286.4416 346.0594 286.4416 345.09064Q286.4416 343.7469 285.98846 343.02814Q285.55096 342.29376 284.92596 342.04376Q284.4572 341.8719 283.4572 341.8719L281.6447 341.8719L281.6447 348.4344ZM289.5041 349.45L289.5041 340.85626L290.66034 340.85626L295.17596 347.60626L295.17596 340.85626L296.2697 340.85626L296.2697 349.45L295.09784 349.45L290.5822 342.7L290.5822 349.45L289.5041 349.45Z" fill-rule="nonzero"/><path fill="#000000" d="M29.550013 209.76146L20.956263 209.76146L20.956263 206.51146Q20.956263 205.66771 21.034388 205.21458Q21.143763 204.57396 21.440638 204.15208Q21.737513 203.71458 22.268763 203.46458Q22.800013 203.19896 23.440638 203.19896Q24.534388 203.19896 25.300013 203.90208Q26.050013 204.58958 26.050013 206.41771L26.050013 208.62083L29.550013 208.62083L29.550013 209.76146ZM25.050013 208.62083L25.050013 206.40208Q25.050013 205.29271 24.643763 204.83958Q24.221888 204.37083 23.471888 204.37083Q22.940638 204.37083 22.565638 204.65208Q22.175013 204.91771 22.050013 205.35521Q21.971888 205.65208 21.971888 206.41771L21.971888 208.62083L25.050013 208.62083ZM29.550013 201.90208L23.331263 201.90208L23.331263 200.94896L24.268763 200.94896Q23.612513 200.58958 23.409388 200.29271Q23.190638 199.98021 23.190638 199.60521Q23.190638 199.07396 23.518763 198.52708L24.503138 198.88646Q24.268763 199.27708 24.268763 199.65208Q24.268763 200.01146 24.487513 200.29271Q24.690638 200.55833 25.065638 200.66771Q25.628138 200.85521 26.284388 200.85521L29.550013 200.85521L29.550013 201.90208ZM22.175013 197.88646L20.956263 197.88646L20.956263 196.82396L22.175013 196.82396L22.175013 197.88646ZM29.550013 197.88646L23.331263 197.88646L23.331263 196.82396L29.550013 196.82396L29.550013 197.88646ZM27.268763 190.82396L27.409388 189.79271Q28.471888 189.96458 29.081263 190.66771Q29.690638 191.37083 29.690638 192.38646Q29.690638 193.66771 28.862513 194.44896Q28.018763 195.21458 26.456263 195.21458Q25.456263 195.21458 24.706263 194.88646Q23.940638 194.54271 23.565638 193.87083Q23.190638 193.18333 23.190638 192.37083Q23.190638 191.37083 23.706263 190.73021Q24.206263 190.07396 25.159388 189.88646L25.315638 190.91771Q24.690638 191.05833 24.378138 191.43333Q24.050013 191.80833 24.050013 192.33958Q24.050013 193.13646 24.628138 193.63646Q25.190638 194.13646 26.425013 194.13646Q27.690638 194.13646 28.253138 193.65208Q28.815638 193.16771 28.815638 192.40208Q28.815638 191.77708 28.440638 191.37083Q28.065638 190.94896 27.268763 190.82396ZM27.550013 184.63646L27.675013 183.54271Q28.628138 183.79271 29.159388 184.49583Q29.690638 185.19896 29.690638 186.27708Q29.690638 187.63646 28.846888 188.44896Q28.003138 189.24583 26.487513 189.24583Q24.925013 189.24583 24.065638 188.43333Q23.190638 187.62083 23.190638 186.33958Q23.190638 185.08958 24.034388 184.30833Q24.878138 183.51146 26.425013 183.51146Q26.518763 183.51146 26.706263 183.51146L26.706263 188.15208Q27.737513 188.08958 28.284388 187.57396Q28.815638 187.05833 28.815638 186.27708Q28.815638 185.69896 28.518763 185.29271Q28.206263 184.87083 27.550013 184.63646ZM25.846888 188.08958L25.846888 184.62083Q25.050013 184.68333 24.659388 185.01146Q24.050013 185.52708 24.050013 186.32396Q24.050013 187.05833 24.534388 187.55833Q25.018763 188.04271 25.846888 188.08958ZM32.08126 176.87083Q30.971888 177.74583 29.503138 178.35521Q28.018763 178.94896 26.440638 178.94896Q25.050013 178.94896 23.768763 178.51146Q22.284388 177.98021 20.815638 176.87083L20.815638 176.12083Q22.034388 176.82396 22.550013 177.05833Q23.362513 177.41771 24.237513 177.62083Q25.331263 177.87083 26.440638 177.87083Q29.268763 177.87083 32.08126 176.12083L32.08126 176.87083ZM30.784388 172.69896L29.737513 172.69896Q29.628138 173.48021 29.378138 173.98021Q29.128138 174.48021 28.565638 174.83958Q27.987513 175.19896 27.159388 175.26146L26.971888 174.19896Q27.815638 174.07396 28.206263 173.76146Q28.768763 173.30833 28.846888 172.69896L25.487513 172.69896Q25.362513 173.33958 24.971888 174.02708Q24.690638 174.52708 24.206263 174.80833Q23.706263 175.07396 23.065638 175.07396Q21.940638 175.07396 21.253138 174.27708Q20.784388 173.74583 20.675013 172.69896L20.175013 172.69896L20.175013 172.07396L20.675013 172.07396Q20.753138 171.15208 21.206263 170.62083Q21.784388 169.91771 22.784388 169.77708L22.956263 170.87083Q22.331263 170.96458 22.003138 171.26146Q21.675013 171.55833 21.565638 172.07396L24.596888 172.07396Q24.800013 171.27708 24.909388 171.01146Q25.128138 170.52708 25.440638 170.21458Q25.753138 169.90208 26.190638 169.74583Q26.612513 169.57396 27.112513 169.57396Q28.206263 169.57396 28.940638 170.27708Q29.675013 170.96458 29.721888 172.07396L30.784388 172.07396L30.784388 172.69896ZM21.550013 172.69896Q21.643763 173.30833 22.050013 173.66771Q22.440638 174.01146 22.987513 174.01146Q23.518763 174.01146 23.893763 173.71458Q24.253138 173.41771 24.471888 172.69896L21.550013 172.69896ZM28.846888 172.07396Q28.768763 171.46458 28.315638 171.05833Q27.846888 170.65208 27.175013 170.65208Q26.596888 170.65208 26.253138 170.94896Q25.909388 171.23021 25.628138 172.07396L28.846888 172.07396ZM32.08126 167.19896L32.08126 167.94896Q29.268763 166.19896 26.440638 166.19896Q25.346888 166.19896 24.253138 166.44896Q23.378138 166.65208 22.565638 167.01146Q22.050013 167.24583 20.815638 167.94896L20.815638 167.19896Q22.284388 166.10521 23.768763 165.57396Q25.050013 165.12083 26.440638 165.12083Q28.018763 165.12083 29.503138 165.73021Q30.971888 166.33958 32.08126 167.19896Z" fill-rule="nonzero"/><path fill="#000000" d="M65.05 300.21564Q65.05 298.6844 65.3625 297.7625Q65.675 296.825 66.28438 296.325Q66.90938 295.825 67.84688 295.825Q68.53438 295.825 69.05 296.10626Q69.58125 296.3875 69.925 296.91876Q70.26875 297.4344 70.45625 298.1844Q70.64375 298.9344 70.64375 300.21564Q70.64375 301.73126 70.33125 302.65314Q70.03438 303.575 69.40938 304.09064Q68.8 304.59064 67.84688 304.59064Q66.6125 304.59064 65.89375 303.7Q65.05 302.6375 65.05 300.21564ZM66.12813 300.21564Q66.12813 302.325 66.62813 303.02814Q67.12813 303.73126 67.84688 303.73126Q68.58125 303.73126 69.06563 303.02814Q69.56563 302.325 69.56563 300.21564Q69.56563 298.09064 69.06563 297.40314Q68.58125 296.7 67.83125 296.7Q67.1125 296.7 66.675 297.3094Q66.12813 298.09064 66.12813 300.21564Z" fill-rule="nonzero"/><path fill="#000000" d="M56.596874 243.80104L56.596874 244.81667L50.909374 244.81667Q50.909374 244.44167 51.034374 244.08229Q51.253124 243.50417 51.721874 242.94167Q52.20625 242.37917 53.1125 241.64479Q54.51875 240.48854 55.003124 239.81667Q55.503124 239.14479 55.503124 238.55104Q55.503124 237.92604 55.05 237.50417Q54.596874 237.06667 53.878124 237.06667Q53.1125 237.06667 52.659374 237.51979Q52.20625 237.97292 52.190624 238.78542L51.1125 238.67604Q51.221874 237.45729 51.940624 236.83229Q52.675 236.19167 53.909374 236.19167Q55.14375 236.19167 55.8625 236.87917Q56.58125 237.56667 56.58125 238.58229Q56.58125 239.09792 56.3625 239.59792Q56.159374 240.08229 55.659374 240.64479Q55.175 241.19167 54.05 242.14479Q53.096874 242.94167 52.815624 243.23854Q52.55 243.51979 52.378124 243.80104L56.596874 243.80104ZM58.05 240.58229Q58.05 239.05104 58.3625 238.12917Q58.675 237.19167 59.284374 236.69167Q59.909374 236.19167 60.846874 236.19167Q61.534374 236.19167 62.05 236.47292Q62.58125 236.75417 62.925 237.28542Q63.26875 237.80104 63.45625 238.55104Q63.64375 239.30104 63.64375 240.58229Q63.64375 242.09792 63.33125 243.01979Q63.034374 243.94167 62.409374 244.45729Q61.8 244.95729 60.846874 244.95729Q59.6125 244.95729 58.89375 244.06667Q58.05 243.00417 58.05 240.58229ZM59.128124 240.58229Q59.128124 242.69167 59.628124 243.39479Q60.128124 244.09792 60.846874 244.09792Q61.58125 244.09792 62.065624 243.39479Q62.565624 242.69167 62.565624 240.58229Q62.565624 238.45729 62.065624 237.76979Q61.58125 237.06667 60.83125 237.06667Q60.1125 237.06667 59.675 237.67604Q59.128124 238.45729 59.128124 240.58229ZM65.05 240.58229Q65.05 239.05104 65.3625 238.12917Q65.675 237.19167 66.28438 236.69167Q66.90938 236.19167 67.84688 236.19167Q68.53438 236.19167 69.05 236.47292Q69.58125 236.75417 69.925 237.28542Q70.26875 237.80104 70.45625 238.55104Q70.64375 239.30104 70.64375 240.58229Q70.64375 242.09792 70.33125 243.01979Q70.03438 243.94167 69.40938 244.45729Q68.8 244.95729 67.84688 244.95729Q66.6125 244.95729 65.89375 244.06667Q65.05 243.00417 65.05 240.58229ZM66.12813 240.58229Q66.12813 242.69167 66.62813 243.39479Q67.12813 244.09792 67.84688 244.09792Q68.58125 244.09792 69.06563 243.39479Q69.56563 242.69167 69.56563 240.58229Q69.56563 238.45729 69.06563 237.76979Q68.58125 237.06667 67.83125 237.06667Q67.1125 237.06667 66.675 237.67604Q66.12813 238.45729 66.12813 240.58229Z" fill-rule="nonzero"/><path fill="#000000" d="M54.425 185.18333L54.425 183.12083L50.70625 183.12083L50.70625 182.15208L54.628124 176.58958L55.4875 176.58958L55.4875 182.15208L56.64375 182.15208L56.64375 183.12083L55.4875 183.12083L55.4875 185.18333L54.425 185.18333ZM54.425 182.15208L54.425 178.29271L51.7375 182.15208L54.425 182.15208ZM58.05 180.94896Q58.05 179.41771 58.3625 178.49583Q58.675 177.55833 59.284374 177.05833Q59.909374 176.55833 60.846874 176.55833Q61.534374 176.55833 62.05 176.83958Q62.58125 177.12083 62.925 177.65208Q63.26875 178.16771 63.45625 178.91771Q63.64375 179.66771 63.64375 180.94896Q63.64375 182.46458 63.33125 183.38646Q63.034374 184.30833 62.409374 184.82396Q61.8 185.32396 60.846874 185.32396Q59.6125 185.32396 58.89375 184.43333Q58.05 183.37083 58.05 180.94896ZM59.128124 180.94896Q59.128124 183.05833 59.628124 183.76146Q60.128124 184.46458 60.846874 184.46458Q61.58125 184.46458 62.065624 183.76146Q62.565624 183.05833 62.565624 180.94896Q62.565624 178.82396 62.065624 178.13646Q61.58125 177.43333 60.83125 177.43333Q60.1125 177.43333 59.675 178.04271Q59.128124 178.82396 59.128124 180.94896ZM65.05 180.94896Q65.05 179.41771 65.3625 178.49583Q65.675 177.55833 66.28438 177.05833Q66.90938 176.55833 67.84688 176.55833Q68.53438 176.55833 69.05 176.83958Q69.58125 177.12083 69.925 177.65208Q70.26875 178.16771 70.45625 178.91771Q70.64375 179.66771 70.64375 180.94896Q70.64375 182.46458 70.33125 183.38646Q70.03438 184.30833 69.40938 184.82396Q68.8 185.32396 67.84688 185.32396Q66.6125 185.32396 65.89375 184.43333Q65.05 183.37083 65.05 180.94896ZM66.12813 180.94896Q66.12813 183.05833 66.62813 183.76146Q67.12813 184.46458 67.84688 184.46458Q68.58125 184.46458 69.06563 183.76146Q69.56563 183.05833 69.56563 180.94896Q69.56563 178.82396 69.06563 178.13646Q68.58125 177.43333 67.83125 177.43333Q67.1125 177.43333 66.675 178.04271Q66.12813 178.82396 66.12813 180.94896Z" fill-rule="nonzero"/><path fill="#000000" d="M56.51875 119.06563L55.471874 119.14375Q55.33125 118.51875 55.08125 118.2375Q54.64375 117.78438 54.01875 117.78438Q53.51875 117.78438 53.128124 118.06563Q52.64375 118.44063 52.346874 119.14375Q52.065624 119.83125 52.05 121.1125Q52.425 120.53438 52.971874 120.25313Q53.534374 119.97188 54.14375 119.97188Q55.190624 119.97188 55.925 120.75313Q56.675 121.53438 56.675 122.75313Q56.675 123.56563 56.315624 124.26875Q55.971874 124.95625 55.3625 125.33125Q54.753124 125.69063 53.9875 125.69063Q52.659374 125.69063 51.83125 124.72188Q51.003124 123.75313 51.003124 121.53438Q51.003124 119.03438 51.925 117.90938Q52.721874 116.925 54.08125 116.925Q55.096874 116.925 55.7375 117.50313Q56.39375 118.06563 56.51875 119.06563ZM52.221874 122.76875Q52.221874 123.31563 52.440624 123.81563Q52.675 124.3 53.08125 124.56563Q53.503124 124.83125 53.971874 124.83125Q54.628124 124.83125 55.1125 124.3Q55.596874 123.75313 55.596874 122.83125Q55.596874 121.94063 55.1125 121.425Q54.64375 120.90938 53.925 120.90938Q53.20625 120.90938 52.70625 121.425Q52.221874 121.94063 52.221874 122.76875ZM58.05 121.31563Q58.05 119.78438 58.3625 118.8625Q58.675 117.925 59.284374 117.425Q59.909374 116.925 60.846874 116.925Q61.534374 116.925 62.05 117.20625Q62.58125 117.4875 62.925 118.01875Q63.26875 118.53438 63.45625 119.28438Q63.64375 120.03438 63.64375 121.31563Q63.64375 122.83125 63.33125 123.75313Q63.034374 124.675 62.409374 125.19063Q61.8 125.69063 60.846874 125.69063Q59.6125 125.69063 58.89375 124.8Q58.05 123.7375 58.05 121.31563ZM59.128124 121.31563Q59.128124 123.425 59.628124 124.12813Q60.128124 124.83125 60.846874 124.83125Q61.58125 124.83125 62.065624 124.12813Q62.565624 123.425 62.565624 121.31563Q62.565624 119.19063 62.065624 118.50313Q61.58125 117.8 60.83125 117.8Q60.1125 117.8 59.675 118.40938Q59.128124 119.19063 59.128124 121.31563ZM65.05 121.31563Q65.05 119.78438 65.3625 118.8625Q65.675 117.925 66.28438 117.425Q66.90938 116.925 67.84688 116.925Q68.53438 116.925 69.05 117.20625Q69.58125 117.4875 69.925 118.01875Q70.26875 118.53438 70.45625 119.28438Q70.64375 120.03438 70.64375 121.31563Q70.64375 122.83125 70.33125 123.75313Q70.03438 124.675 69.40938 125.19063Q68.8 125.69063 67.84688 125.69063Q66.6125 125.69063 65.89375 124.8Q65.05 123.7375 65.05 121.31563ZM66.12813 121.31563Q66.12813 123.425 66.62813 124.12813Q67.12813 124.83125 67.84688 124.83125Q68.58125 124.83125 69.06563 124.12813Q69.56563 123.425 69.56563 121.31563Q69.56563 119.19063 69.06563 118.50313Q68.58125 117.8 67.83125 117.8Q67.1125 117.8 66.675 118.40938Q66.12813 119.19063 66.12813 121.31563Z" fill-rule="nonzero"/><path fill="#000000" d="M52.675 61.260414Q52.01875 61.010414 51.690624 60.572914Q51.378124 60.11979 51.378124 59.510414Q51.378124 58.572914 52.05 57.93229Q52.7375 57.291664 53.846874 57.291664Q54.971874 57.291664 55.659374 57.947914Q56.346874 58.604164 56.346874 59.541664Q56.346874 60.135414 56.034374 60.572914Q55.721874 61.010414 55.08125 61.260414Q55.878124 61.510414 56.284374 62.08854Q56.690624 62.666664 56.690624 63.46354Q56.690624 64.55729 55.909374 65.30729Q55.14375 66.05729 53.8625 66.05729Q52.596874 66.05729 51.815624 65.30729Q51.034374 64.55729 51.034374 63.43229Q51.034374 62.58854 51.45625 62.02604Q51.89375 61.46354 52.675 61.260414ZM52.45625 59.46354Q52.45625 60.072914 52.846874 60.46354Q53.253124 60.854164 53.878124 60.854164Q54.4875 60.854164 54.878124 60.479164Q55.26875 60.08854 55.26875 59.52604Q55.26875 58.947914 54.8625 58.55729Q54.45625 58.15104 53.8625 58.15104Q53.253124 58.15104 52.846874 58.541664Q52.45625 58.93229 52.45625 59.46354ZM52.128124 63.43229Q52.128124 63.885414 52.33125 64.30729Q52.55 64.729164 52.971874 64.96354Q53.39375 65.197914 53.878124 65.197914Q54.628124 65.197914 55.1125 64.71354Q55.6125 64.229164 55.6125 63.479164Q55.6125 62.71354 55.1125 62.21354Q54.6125 61.71354 53.846874 61.71354Q53.096874 61.71354 52.6125 62.21354Q52.128124 62.697914 52.128124 63.43229ZM58.05 61.68229Q58.05 60.15104 58.3625 59.229164Q58.675 58.291664 59.284374 57.791664Q59.909374 57.291664 60.846874 57.291664Q61.534374 57.291664 62.05 57.572914Q62.58125 57.854164 62.925 58.385414Q63.26875 58.90104 63.45625 59.65104Q63.64375 60.40104 63.64375 61.68229Q63.64375 63.197914 63.33125 64.11979Q63.034374 65.041664 62.409374 65.55729Q61.8 66.05729 60.846874 66.05729Q59.6125 66.05729 58.89375 65.166664Q58.05 64.104164 58.05 61.68229ZM59.128124 61.68229Q59.128124 63.791664 59.628124 64.49479Q60.128124 65.197914 60.846874 65.197914Q61.58125 65.197914 62.065624 64.49479Q62.565624 63.791664 62.565624 61.68229Q62.565624 59.55729 62.065624 58.86979Q61.58125 58.166664 60.83125 58.166664Q60.1125 58.166664 59.675 58.77604Q59.128124 59.55729 59.128124 61.68229ZM65.05 61.68229Q65.05 60.15104 65.3625 59.229164Q65.675 58.291664 66.28438 57.791664Q66.90938 57.291664 67.84688 57.291664Q68.53438 57.291664 69.05 57.572914Q69.58125 57.854164 69.925 58.385414Q70.26875 58.90104 70.45625 59.65104Q70.64375 60.40104 70.64375 61.68229Q70.64375 63.197914 70.33125 64.11979Q70.03438 65.041664 69.40938 65.55729Q68.8 66.05729 67.84688 66.05729Q66.6125 66.05729 65.89375 65.166664Q65.05 64.104164 65.05 61.68229ZM66.12813 61.68229Q66.12813 63.791664 66.62813 64.49479Q67.12813 65.197914 67.84688 65.197914Q68.58125 65.197914 69.06563 64.49479Q69.56563 63.791664 69.56563 61.68229Q69.56563 59.55729 69.06563 58.86979Q68.58125 58.166664 67.83125 58.166664Q67.1125 58.166664 66.675 58.77604Q66.12813 59.55729 66.12813 61.68229Z" fill-rule="nonzero"/><path fill="#000000" d="M119.22741 315.2L120.336784 315.10626Q120.461784 315.91876 120.899284 316.325Q121.35241 316.73126 121.993034 316.73126Q122.743034 316.73126 123.274284 316.15314Q123.805534 315.575 123.805534 314.6375Q123.805534 313.73126 123.28991 313.21564Q122.78991 312.6844 121.961784 312.6844Q121.461784 312.6844 121.03991 312.91876Q120.63366 313.15314 120.399284 313.5125L119.41491 313.3875L120.243034 308.98126L124.524284 308.98126L124.524284 309.98126L121.086784 309.98126L120.63366 312.29376Q121.399284 311.7469 122.243034 311.7469Q123.368034 311.7469 124.13366 312.52814Q124.91491 313.3094 124.91491 314.54376Q124.91491 315.7 124.243034 316.5594Q123.41491 317.59064 121.993034 317.59064Q120.82116 317.59064 120.07116 316.9344Q119.336784 316.27814 119.22741 315.2ZM126.22741 313.21564Q126.22741 311.6844 126.53991 310.7625Q126.85241 309.825 127.461784 309.325Q128.08679 308.825 129.02429 308.825Q129.71179 308.825 130.22742 309.10626Q130.75867 309.3875 131.10242 309.91876Q131.44617 310.4344 131.63367 311.1844Q131.82117 311.9344 131.82117 313.21564Q131.82117 314.73126 131.50867 315.65314Q131.21179 316.575 130.58679 317.09064Q129.97742 317.59064 129.02429 317.59064Q127.78991 317.59064 127.07116 316.7Q126.22741 315.6375 126.22741 313.21564ZM127.305534 313.21564Q127.305534 315.325 127.805534 316.02814Q128.30554 316.73126 129.02429 316.73126Q129.75867 316.73126 130.24304 316.02814Q130.74304 315.325 130.74304 313.21564Q130.74304 311.09064 130.24304 310.40314Q129.75867 309.7 129.00867 309.7Q128.28992 309.7 127.85241 310.3094Q127.305534 311.09064 127.305534 313.21564ZM133.22742 313.21564Q133.22742 311.6844 133.53992 310.7625Q133.85242 309.825 134.46179 309.325Q135.08679 308.825 136.02429 308.825Q136.71179 308.825 137.22742 309.10626Q137.75867 309.3875 138.10242 309.91876Q138.44617 310.4344 138.63367 311.1844Q138.82117 311.9344 138.82117 313.21564Q138.82117 314.73126 138.50867 315.65314Q138.21179 316.575 137.58679 317.09064Q136.97742 317.59064 136.02429 317.59064Q134.78992 317.59064 134.07117 316.7Q133.22742 315.6375 133.22742 313.21564ZM134.30554 313.21564Q134.30554 315.325 134.80554 316.02814Q135.30554 316.73126 136.02429 316.73126Q136.75867 316.73126 137.24304 316.02814Q137.74304 315.325 137.74304 313.21564Q137.74304 311.09064 137.24304 310.40314Q136.75867 309.7 136.00867 309.7Q135.28992 309.7 134.85242 310.3094Q134.30554 311.09064 134.30554 313.21564ZM140.22742 313.21564Q140.22742 311.6844 140.53992 310.7625Q140.85242 309.825 141.46179 309.325Q142.08679 308.825 143.02429 308.825Q143.71179 308.825 144.22742 309.10626Q144.75867 309.3875 145.10242 309.91876Q145.44617 310.4344 145.63367 311.1844Q145.82117 311.9344 145.82117 313.21564Q145.82117 314.73126 145.50867 315.65314Q145.21179 316.575 144.58679 317.09064Q143.97742 317.59064 143.02429 317.59064Q141.78992 317.59064 141.07117 316.7Q140.22742 315.6375 140.22742 313.21564ZM141.30554 313.21564Q141.30554 315.325 141.80554 316.02814Q142.30554 316.73126 143.02429 316.73126Q143.75867 316.73126 144.24304 316.02814Q144.74304 315.325 144.74304 313.21564Q144.74304 311.09064 144.24304 310.40314Q143.75867 309.7 143.00867 309.7Q142.28992 309.7 141.85242 310.3094Q141.30554 311.09064 141.30554 313.21564ZM151.68054 314.075L151.68054 313.075L155.30554 313.0594L155.30554 316.2469Q154.47742 316.91876 153.58679 317.2625Q152.69617 317.59064 151.75867 317.59064Q150.49304 317.59064 149.44617 317.0594Q148.41492 316.5125 147.88367 315.4969Q147.36804 314.46564 147.36804 313.2Q147.36804 311.9344 147.88367 310.85626Q148.41492 309.7625 149.39929 309.2469Q150.38367 308.71564 151.66492 308.71564Q152.60242 308.71564 153.35242 309.0125Q154.10242 309.3094 154.52429 309.85626Q154.96179 310.3875 155.18054 311.2625L154.16492 311.54376Q153.96179 310.8875 153.66492 310.5125Q153.38367 310.1375 152.85242 309.91876Q152.32117 309.6844 151.68054 309.6844Q150.89929 309.6844 150.32117 309.91876Q149.75867 310.15314 149.39929 310.54376Q149.05554 310.9344 148.86804 311.40314Q148.53992 312.2 148.53992 313.1219Q148.53992 314.27814 148.93054 315.0594Q149.33679 315.825 150.08679 316.2Q150.83679 316.575 151.69617 316.575Q152.43054 316.575 153.13367 316.29376Q153.83679 315.9969 154.19617 315.6844L154.19617 314.075L151.68054 314.075ZM156.60242 317.45L156.60242 308.85626L159.83679 308.85626Q160.82117 308.85626 161.41492 309.1219Q162.00867 309.3875 162.33679 309.9344Q162.68054 310.46564 162.68054 311.0594Q162.68054 311.60626 162.38367 312.09064Q162.08679 312.575 161.47742 312.8719Q162.25867 313.10626 162.66492 313.66876Q163.08679 314.21564 163.08679 314.96564Q163.08679 315.5594 162.83679 316.09064Q162.58679 316.60626 162.21179 316.8875Q161.83679 317.16876 161.25867 317.3094Q160.69617 317.45 159.88367 317.45L156.60242 317.45ZM157.74304 312.46564L159.60242 312.46564Q160.35242 312.46564 160.68054 312.3719Q161.11804 312.2469 161.33679 311.95Q161.55554 311.6375 161.55554 311.1844Q161.55554 310.7625 161.35242 310.4344Q161.14929 310.10626 160.75867 309.9969Q160.38367 309.8719 159.46179 309.8719L157.74304 309.8719L157.74304 312.46564ZM157.74304 316.4344L159.88367 316.4344Q160.43054 316.4344 160.64929 316.3875Q161.05554 316.325 161.30554 316.16876Q161.57117 315.9969 161.74304 315.6844Q161.91492 315.3719 161.91492 314.96564Q161.91492 314.48126 161.66492 314.1219Q161.43054 313.7625 160.99304 313.6219Q160.55554 313.48126 159.72742 313.48126L157.74304 313.48126L157.74304 316.4344Z" fill-rule="nonzero"/><path fill="#000000" d="M262.05096 317.45L261.0041 317.45L261.0041 310.73126Q260.61346 311.09064 259.98846 311.46564Q259.3791 311.825 258.8947 311.9969L258.8947 310.98126Q259.7697 310.5594 260.42596 309.98126Q261.09784 309.3875 261.3791 308.825L262.05096 308.825L262.05096 317.45ZM267.6916 317.45L267.6916 309.8719L264.86346 309.8719L264.86346 308.85626L271.67596 308.85626L271.67596 309.8719L268.8322 309.8719L268.8322 317.45L267.6916 317.45ZM272.4572 317.45L272.4572 308.85626L275.6916 308.85626Q276.67596 308.85626 277.2697 309.1219Q277.86346 309.3875 278.1916 309.9344Q278.53534 310.46564 278.53534 311.0594Q278.53534 311.60626 278.23846 312.09064Q277.9416 312.575 277.3322 312.8719Q278.11346 313.10626 278.5197 313.66876Q278.9416 314.21564 278.9416 314.96564Q278.9416 315.5594 278.6916 316.09064Q278.4416 316.60626 278.0666 316.8875Q277.6916 317.16876 277.11346 317.3094Q276.55096 317.45 275.73846 317.45L272.4572 317.45ZM273.59784 312.46564L275.4572 312.46564Q276.2072 312.46564 276.53534 312.3719Q276.97284 312.2469 277.1916 311.95Q277.41034 311.6375 277.41034 311.1844Q277.41034 310.7625 277.2072 310.4344Q277.0041 310.10626 276.61346 309.9969Q276.23846 309.8719 275.3166 309.8719L273.59784 309.8719L273.59784 312.46564ZM273.59784 316.4344L275.73846 316.4344Q276.28534 316.4344 276.5041 316.3875Q276.91034 316.325 277.16034 316.16876Q277.42596 315.9969 277.59784 315.6844Q277.7697 315.3719 277.7697 314.96564Q277.7697 314.48126 277.5197 314.1219Q277.28534 313.7625 276.84784 313.6219Q276.41034 313.48126 275.5822 313.48126L273.59784 313.48126L273.59784 316.4344Z" fill-rule="nonzero"/><path fill="#000000" d="M385.43704 315.2L386.54642 315.10626Q386.67142 315.91876 387.10892 316.325Q387.56204 316.73126 388.20267 316.73126Q388.95267 316.73126 389.48392 316.15314Q390.01517 315.575 390.01517 314.6375Q390.01517 313.73126 389.49954 313.21564Q388.99954 312.6844 388.17142 312.6844Q387.67142 312.6844 387.24954 312.91876Q386.8433 313.15314 386.60892 313.5125L385.62454 313.3875L386.45267 308.98126L390.73392 308.98126L390.73392 309.98126L387.29642 309.98126L386.8433 312.29376Q387.60892 311.7469 388.45267 311.7469Q389.57767 311.7469 390.3433 312.52814Q391.12454 313.3094 391.12454 314.54376Q391.12454 315.7 390.45267 316.5594Q389.62454 317.59064 388.20267 317.59064Q387.0308 317.59064 386.2808 316.9344Q385.54642 316.27814 385.43704 315.2ZM395.04642 317.45L395.04642 309.8719L392.2183 309.8719L392.2183 308.85626L399.0308 308.85626L399.0308 309.8719L396.18704 309.8719L396.18704 317.45L395.04642 317.45ZM399.81204 317.45L399.81204 308.85626L403.04642 308.85626Q404.0308 308.85626 404.62454 309.1219Q405.2183 309.3875 405.54642 309.9344Q405.89017 310.46564 405.89017 311.0594Q405.89017 311.60626 405.5933 312.09064Q405.29642 312.575 404.68704 312.8719Q405.4683 313.10626 405.87454 313.66876Q406.29642 314.21564 406.29642 314.96564Q406.29642 315.5594 406.04642 316.09064Q405.79642 316.60626 405.42142 316.8875Q405.04642 317.16876 404.4683 317.3094Q403.9058 317.45 403.0933 317.45L399.81204 317.45ZM400.95267 312.46564L402.81204 312.46564Q403.56204 312.46564 403.89017 312.3719Q404.32767 312.2469 404.54642 311.95Q404.76517 311.6375 404.76517 311.1844Q404.76517 310.7625 404.56204 310.4344Q404.35892 310.10626 403.9683 309.9969Q403.5933 309.8719 402.67142 309.8719L400.95267 309.8719L400.95267 312.46564ZM400.95267 316.4344L403.0933 316.4344Q403.64017 316.4344 403.85892 316.3875Q404.26517 316.325 404.51517 316.16876Q404.7808 315.9969 404.95267 315.6844Q405.12454 315.3719 405.12454 314.96564Q405.12454 314.48126 404.87454 314.1219Q404.64017 313.7625 404.20267 313.6219Q403.76517 313.48126 402.93704 313.48126L400.95267 313.48126L400.95267 316.4344Z" fill-rule="nonzero"/><path fill="#980000" d="M485.45 55.916668L490.64615 64.916664L480.25385 64.916664Z" fill-rule="nonzero"/><path fill="#1a1a1a" d="M506.5125 62.90104L507.6375 63.197914Q507.27814 64.58854 506.35626 65.322914Q505.4344 66.05729 504.09064 66.05729Q502.7 66.05729 501.825 65.49479Q500.95 64.93229 500.4969 63.86979Q500.04376 62.791664 500.04376 61.55729Q500.04376 60.21354 500.5594 59.21354Q501.075 58.21354 502.0125 57.697914Q502.96564 57.18229 504.10626 57.18229Q505.3875 57.18229 506.2625 57.83854Q507.15314 58.49479 507.4969 59.68229L506.3719 59.947914Q506.075 59.010414 505.4969 58.58854Q504.9344 58.15104 504.075 58.15104Q503.09064 58.15104 502.41876 58.635414Q501.7625 59.104164 501.48126 59.90104Q501.21564 60.697914 501.21564 61.55729Q501.21564 62.65104 501.52814 63.46354Q501.85626 64.27604 502.52814 64.68229Q503.2 65.08854 503.9969 65.08854Q504.95 65.08854 505.60626 64.541664Q506.27814 63.99479 506.5125 62.90104ZM509.21564 65.916664L509.21564 57.322914L510.27814 57.322914L510.27814 65.916664L509.21564 65.916664ZM511.85626 62.80729Q511.85626 61.072914 512.8094 60.24479Q513.60626 59.55729 514.7625 59.55729Q516.04376 59.55729 516.85626 60.40104Q517.6844 61.229164 517.6844 62.71354Q517.6844 63.916664 517.325 64.604164Q516.96564 65.291664 516.2625 65.68229Q515.575 66.05729 514.7625 66.05729Q513.46564 66.05729 512.65314 65.229164Q511.85626 64.385414 511.85626 62.80729ZM512.9344 62.80729Q512.9344 63.99479 513.45 64.58854Q513.98126 65.18229 514.7625 65.18229Q515.5594 65.18229 516.075 64.58854Q516.59064 63.99479 516.59064 62.77604Q516.59064 61.61979 516.0594 61.02604Q515.54376 60.43229 514.7625 60.43229Q513.98126 60.43229 513.45 61.02604Q512.9344 61.604164 512.9344 62.80729ZM523.325 65.916664L523.325 64.99479Q522.59064 66.05729 521.34064 66.05729Q520.79376 66.05729 520.3094 65.854164Q519.84064 65.635414 519.60626 65.322914Q519.3719 64.99479 519.27814 64.52604Q519.21564 64.229164 519.21564 63.541664L519.21564 59.697914L520.27814 59.697914L520.27814 63.15104Q520.27814 63.96354 520.34064 64.260414Q520.4344 64.666664 520.7469 64.916664Q521.075 65.15104 521.5594 65.15104Q522.02814 65.15104 522.4344 64.916664Q522.85626 64.666664 523.02814 64.24479Q523.21564 63.822914 523.21564 63.02604L523.21564 59.697914L524.2625 59.697914L524.2625 65.916664L523.325 65.916664ZM530.27814 65.916664L530.27814 65.135414Q529.6844 66.05729 528.54376 66.05729Q527.79376 66.05729 527.16876 65.65104Q526.54376 65.229164 526.2 64.49479Q525.85626 63.760414 525.85626 62.80729Q525.85626 61.885414 526.16876 61.11979Q526.48126 60.354164 527.10626 59.96354Q527.73126 59.55729 528.4969 59.55729Q529.0594 59.55729 529.4969 59.791664Q529.9344 60.02604 530.21564 60.40104L530.21564 57.322914L531.2625 57.322914L531.2625 65.916664L530.27814 65.916664ZM526.95 62.80729Q526.95 64.010414 527.45 64.604164Q527.95 65.18229 528.6375 65.18229Q529.325 65.18229 529.8094 64.61979Q530.29376 64.05729 530.29376 62.90104Q530.29376 61.61979 529.79376 61.02604Q529.3094 60.43229 528.59064 60.43229Q527.8875 60.43229 527.41876 61.010414Q526.95 61.572914 526.95 62.80729ZM533.4969 65.916664L533.4969 60.510414L532.5594 60.510414L532.5594 59.697914L533.4969 59.697914L533.4969 59.02604Q533.4969 58.40104 533.60626 58.104164Q533.7625 57.68229 534.1375 57.43229Q534.52814 57.18229 535.21564 57.18229Q535.66876 57.18229 536.2 57.291664L536.04376 58.197914Q535.71564 58.15104 535.41876 58.15104Q534.9344 58.15104 534.73126 58.354164Q534.54376 58.55729 534.54376 59.11979L534.54376 59.697914L535.7625 59.697914L535.7625 60.510414L534.54376 60.510414L534.54376 65.916664L533.4969 65.916664ZM536.21564 65.916664L536.21564 57.322914L537.27814 57.322914L537.27814 65.916664L536.21564 65.916664ZM543.3094 65.15104Q542.71564 65.65104 542.16876 65.854164Q541.6375 66.05729 541.0125 66.05729Q539.98126 66.05729 539.4344 65.55729Q538.8875 65.05729 538.8875 64.27604Q538.8875 63.822914 539.09064 63.447914Q539.29376 63.05729 539.6375 62.83854Q539.98126 62.604164 540.40314 62.49479Q540.7 62.40104 541.34064 62.322914Q542.60626 62.18229 543.21564 61.96354Q543.21564 61.74479 543.21564 61.697914Q543.21564 61.041664 542.91876 60.77604Q542.5125 60.43229 541.71564 60.43229Q540.98126 60.43229 540.6219 60.697914Q540.2625 60.947914 540.09064 61.604164L539.0594 61.46354Q539.2 60.80729 539.52814 60.40104Q539.85626 59.99479 540.46564 59.77604Q541.075 59.55729 541.8719 59.55729Q542.66876 59.55729 543.16876 59.74479Q543.66876 59.93229 543.90314 60.21354Q544.1375 60.49479 544.23126 60.93229Q544.27814 61.197914 544.27814 61.90104L544.27814 63.30729Q544.27814 64.77604 544.34064 65.166664Q544.41876 65.55729 544.6219 65.916664L543.5125 65.916664Q543.35626 65.58854 543.3094 65.15104ZM543.21564 62.791664Q542.6375 63.02604 541.4969 63.197914Q540.84064 63.291664 540.575 63.416664Q540.3094 63.52604 540.15314 63.74479Q540.0125 63.96354 540.0125 64.24479Q540.0125 64.666664 540.325 64.947914Q540.65314 65.229164 541.2625 65.229164Q541.8719 65.229164 542.34064 64.96354Q542.825 64.697914 543.04376 64.229164Q543.21564 63.86979 543.21564 63.18229L543.21564 62.791664ZM546.23126 65.916664L546.23126 59.697914L547.1844 59.697914L547.1844 60.635414Q547.54376 59.979164 547.84064 59.77604Q548.15314 59.55729 548.52814 59.55729Q549.0594 59.55729 549.60626 59.885414L549.2469 60.86979Q548.85626 60.635414 548.48126 60.635414Q548.1219 60.635414 547.84064 60.854164Q547.575 61.05729 547.46564 61.43229Q547.27814 61.99479 547.27814 62.65104L547.27814 65.916664L546.23126 65.916664ZM554.4969 63.916664L555.59064 64.041664Q555.34064 64.99479 554.6375 65.52604Q553.9344 66.05729 552.85626 66.05729Q551.4969 66.05729 550.6844 65.21354Q549.8875 64.36979 549.8875 62.854164Q549.8875 61.291664 550.7 60.43229Q551.5125 59.55729 552.79376 59.55729Q554.04376 59.55729 554.825 60.40104Q555.6219 61.24479 555.6219 62.791664Q555.6219 62.885414 555.6219 63.072914L550.98126 63.072914Q551.04376 64.104164 551.5594 64.65104Q552.075 65.18229 552.85626 65.18229Q553.4344 65.18229 553.84064 64.885414Q554.2625 64.572914 554.4969 63.916664ZM551.04376 62.21354L554.5125 62.21354Q554.45 61.416664 554.1219 61.02604Q553.60626 60.416664 552.8094 60.416664Q552.075 60.416664 551.575 60.90104Q551.09064 61.385414 551.04376 62.21354Z" fill-rule="nonzero"/><path fill="#ea4335" d="M485.45 79.916664L490.64615 88.916664L480.25385 88.916664Z" fill-rule="nonzero"/><path fill="#1a1a1a" d="M504.40314 86.541664L504.40314 85.541664L508.02814 85.52604L508.02814 88.71354Q507.2 89.385414 506.3094 89.729164Q505.41876 90.05729 504.48126 90.05729Q503.21564 90.05729 502.16876 89.52604Q501.1375 88.979164 500.60626 87.96354Q500.09064 86.93229 500.09064 85.666664Q500.09064 84.40104 500.60626 83.322914Q501.1375 82.229164 502.1219 81.71354Q503.10626 81.18229 504.3875 81.18229Q505.325 81.18229 506.075 81.479164Q506.825 81.77604 507.2469 82.322914Q507.6844 82.854164 507.90314 83.729164L506.8875 84.010414Q506.6844 83.354164 506.3875 82.979164Q506.10626 82.604164 505.575 82.385414Q505.04376 82.15104 504.40314 82.15104Q503.6219 82.15104 503.04376 82.385414Q502.48126 82.61979 502.1219 83.010414Q501.77814 83.40104 501.59064 83.86979Q501.2625 84.666664 501.2625 85.58854Q501.2625 86.74479 501.65314 87.52604Q502.0594 88.291664 502.8094 88.666664Q503.5594 89.041664 504.41876 89.041664Q505.15314 89.041664 505.85626 88.760414Q506.5594 88.46354 506.91876 88.15104L506.91876 86.541664L504.40314 86.541664ZM508.85626 86.80729Q508.85626 85.072914 509.8094 84.24479Q510.60626 83.55729 511.7625 83.55729Q513.04376 83.55729 513.85626 84.40104Q514.6844 85.229164 514.6844 86.71354Q514.6844 87.916664 514.325 88.604164Q513.96564 89.291664 513.2625 89.68229Q512.575 90.05729 511.7625 90.05729Q510.46564 90.05729 509.65314 89.229164Q508.85626 88.385414 508.85626 86.80729ZM509.9344 86.80729Q509.9344 87.99479 510.45 88.58854Q510.98126 89.18229 511.7625 89.18229Q512.5594 89.18229 513.075 88.58854Q513.59064 87.99479 513.59064 86.77604Q513.59064 85.61979 513.0594 85.02604Q512.54376 84.43229 511.7625 84.43229Q510.98126 84.43229 510.45 85.02604Q509.9344 85.604164 509.9344 86.80729ZM515.85626 86.80729Q515.85626 85.072914 516.8094 84.24479Q517.60626 83.55729 518.7625 83.55729Q520.04376 83.55729 520.85626 84.40104Q521.6844 85.229164 521.6844 86.71354Q521.6844 87.916664 521.325 88.604164Q520.96564 89.291664 520.2625 89.68229Q519.575 90.05729 518.7625 90.05729Q517.46564 90.05729 516.65314 89.229164Q515.85626 88.385414 515.85626 86.80729ZM516.9344 86.80729Q516.9344 87.99479 517.45 88.58854Q517.98126 89.18229 518.7625 89.18229Q519.5594 89.18229 520.075 88.58854Q520.59064 87.99479 520.59064 86.77604Q520.59064 85.61979 520.0594 85.02604Q519.54376 84.43229 518.7625 84.43229Q517.98126 84.43229 517.45 85.02604Q516.9344 85.604164 516.9344 86.80729ZM523.04376 90.43229L524.075 90.58854Q524.1375 91.05729 524.4344 91.27604Q524.825 91.572914 525.4969 91.572914Q526.23126 91.572914 526.6219 91.27604Q527.02814 90.979164 527.16876 90.46354Q527.2625 90.135414 527.2469 89.104164Q526.5594 89.916664 525.52814 89.916664Q524.2469 89.916664 523.54376 88.99479Q522.84064 88.05729 522.84064 86.77604Q522.84064 85.885414 523.15314 85.135414Q523.48126 84.36979 524.09064 83.96354Q524.7 83.55729 525.52814 83.55729Q526.6375 83.55729 527.35626 84.447914L527.35626 83.697914L528.325 83.697914L528.325 89.072914Q528.325 90.52604 528.02814 91.135414Q527.73126 91.74479 527.09064 92.08854Q526.45 92.447914 525.5125 92.447914Q524.40314 92.447914 523.71564 91.947914Q523.02814 91.447914 523.04376 90.43229ZM523.91876 86.697914Q523.91876 87.916664 524.40314 88.479164Q524.8875 89.041664 525.6219 89.041664Q526.35626 89.041664 526.84064 88.479164Q527.34064 87.916664 527.34064 86.729164Q527.34064 85.58854 526.825 85.010414Q526.325 84.43229 525.60626 84.43229Q524.90314 84.43229 524.40314 85.010414Q523.91876 85.572914 523.91876 86.697914ZM530.21564 89.916664L530.21564 81.322914L531.27814 81.322914L531.27814 89.916664L530.21564 89.916664ZM537.4969 87.916664L538.59064 88.041664Q538.34064 88.99479 537.6375 89.52604Q536.9344 90.05729 535.85626 90.05729Q534.4969 90.05729 533.6844 89.21354Q532.8875 88.36979 532.8875 86.854164Q532.8875 85.291664 533.7 84.43229Q534.5125 83.55729 535.79376 83.55729Q537.04376 83.55729 537.825 84.40104Q538.6219 85.24479 538.6219 86.791664Q538.6219 86.885414 538.6219 87.072914L533.98126 87.072914Q534.04376 88.104164 534.5594 88.65104Q535.075 89.18229 535.85626 89.18229Q536.4344 89.18229 536.84064 88.885414Q537.2625 88.572914 537.4969 87.916664ZM534.04376 86.21354L537.5125 86.21354Q537.45 85.416664 537.1219 85.02604Q536.60626 84.416664 535.8094 84.416664Q535.075 84.416664 534.575 84.90104Q534.09064 85.385414 534.04376 86.21354ZM549.5125 86.90104L550.6375 87.197914Q550.27814 88.58854 549.35626 89.322914Q548.4344 90.05729 547.09064 90.05729Q545.7 90.05729 544.825 89.49479Q543.95 88.93229 543.4969 87.86979Q543.04376 86.791664 543.04376 85.55729Q543.04376 84.21354 543.5594 83.21354Q544.075 82.21354 545.0125 81.697914Q545.96564 81.18229 547.10626 81.18229Q548.3875 81.18229 549.2625 81.83854Q550.15314 82.49479 550.4969 83.68229L549.3719 83.947914Q549.075 83.010414 548.4969 82.58854Q547.9344 82.15104 547.075 82.15104Q546.09064 82.15104 545.41876 82.635414Q544.7625 83.104164 544.48126 83.90104Q544.21564 84.697914 544.21564 85.55729Q544.21564 86.65104 544.52814 87.46354Q544.85626 88.27604 545.52814 88.68229Q546.2 89.08854 546.9969 89.08854Q547.95 89.08854 548.60626 88.541664Q549.27814 87.99479 549.5125 86.90104ZM552.21564 89.916664L552.21564 81.322914L553.27814 81.322914L553.27814 89.916664L552.21564 89.916664ZM554.85626 86.80729Q554.85626 85.072914 555.8094 84.24479Q556.60626 83.55729 557.7625 83.55729Q559.04376 83.55729 559.85626 84.40104Q560.6844 85.229164 560.6844 86.71354Q560.6844 87.916664 560.325 88.604164Q559.96564 89.291664 559.2625 89.68229Q558.575 90.05729 557.7625 90.05729Q556.46564 90.05729 555.65314 89.229164Q554.85626 88.385414 554.85626 86.80729ZM555.9344 86.80729Q555.9344 87.99479 556.45 88.58854Q556.98126 89.18229 557.7625 89.18229Q558.5594 89.18229 559.075 88.58854Q559.59064 87.99479 559.59064 86.77604Q559.59064 85.61979 559.0594 85.02604Q558.54376 84.43229 557.7625 84.43229Q556.98126 84.43229 556.45 85.02604Q555.9344 85.604164 555.9344 86.80729ZM566.325 89.916664L566.325 88.99479Q565.59064 90.05729 564.34064 90.05729Q563.79376 90.05729 563.3094 89.854164Q562.84064 89.635414 562.60626 89.322914Q562.3719 88.99479 562.27814 88.52604Q562.21564 88.229164 562.21564 87.541664L562.21564 83.697914L563.27814 83.697914L563.27814 87.15104Q563.27814 87.96354 563.34064 88.260414Q563.4344 88.666664 563.7469 88.916664Q564.075 89.15104 564.5594 89.15104Q565.02814 89.15104 565.4344 88.916664Q565.85626 88.666664 566.02814 88.24479Q566.21564 87.822914 566.21564 87.02604L566.21564 83.697914L567.2625 83.697914L567.2625 89.916664L566.325 89.916664ZM573.27814 89.916664L573.27814 89.135414Q572.6844 90.05729 571.54376 90.05729Q570.79376 90.05729 570.16876 89.65104Q569.54376 89.229164 569.2 88.49479Q568.85626 87.760414 568.85626 86.80729Q568.85626 85.885414 569.16876 85.11979Q569.48126 84.354164 570.10626 83.96354Q570.73126 83.55729 571.4969 83.55729Q572.0594 83.55729 572.4969 83.791664Q572.9344 84.02604 573.21564 84.40104L573.21564 81.322914L574.2625 81.322914L574.2625 89.916664L573.27814 89.916664ZM569.95 86.80729Q569.95 88.010414 570.45 88.604164Q570.95 89.18229 571.6375 89.18229Q572.325 89.18229 572.8094 88.61979Q573.29376 88.05729 573.29376 86.90104Q573.29376 85.61979 572.79376 85.02604Q572.3094 84.43229 571.59064 84.43229Q570.8875 84.43229 570.41876 85.010414Q569.95 85.572914 569.95 86.80729Z" fill-rule="nonzero"/><path fill="#fbbc04" d="M485.45 103.916664L490.64615 112.916664L480.25385 112.916664Z" fill-rule="nonzero"/><path fill="#1a1a1a" d="M500.325 113.916664L500.325 105.322914L501.46564 105.322914L501.46564 109.58854L505.73126 105.322914L507.27814 105.322914L503.66876 108.80729L507.4344 113.916664L505.9344 113.916664L502.8719 109.572914L501.46564 110.93229L501.46564 113.916664L500.325 113.916664ZM512.4969 111.916664L513.59064 112.041664Q513.34064 112.99479 512.6375 113.52604Q511.9344 114.05729 510.85626 114.05729Q509.4969 114.05729 508.6844 113.21354Q507.8875 112.36979 507.8875 110.854164Q507.8875 109.291664 508.7 108.43229Q509.5125 107.55729 510.79376 107.55729Q512.04376 107.55729 512.825 108.40104Q513.6219 109.24479 513.6219 110.791664Q513.6219 110.885414 513.6219 111.072914L508.98126 111.072914Q509.04376 112.104164 509.5594 112.65104Q510.075 113.18229 510.85626 113.18229Q511.4344 113.18229 511.84064 112.885414Q512.2625 112.572914 512.4969 111.916664ZM509.04376 110.21354L512.5125 110.21354Q512.45 109.416664 512.1219 109.02604Q511.60626 108.416664 510.8094 108.416664Q510.075 108.416664 509.575 108.90104Q509.09064 109.385414 509.04376 110.21354ZM515.2 116.30729L515.075 115.322914Q515.41876 115.416664 515.6844 115.416664Q516.02814 115.416664 516.23126 115.291664Q516.45 115.18229 516.59064 114.979164Q516.6844 114.80729 516.91876 114.18229Q516.9344 114.104164 517.0125 113.93229L514.6375 107.697914L515.77814 107.697914L517.075 111.291664Q517.325 111.979164 517.52814 112.74479Q517.71564 112.010414 517.96564 111.322914L519.29376 107.697914L520.34064 107.697914L517.98126 114.02604Q517.59064 115.041664 517.3875 115.43229Q517.10626 115.96354 516.73126 116.197914Q516.3719 116.447914 515.8719 116.447914Q515.575 116.447914 515.2 116.30729ZM526.5125 110.90104L527.6375 111.197914Q527.27814 112.58854 526.35626 113.322914Q525.4344 114.05729 524.09064 114.05729Q522.7 114.05729 521.825 113.49479Q520.95 112.93229 520.4969 111.86979Q520.04376 110.791664 520.04376 109.55729Q520.04376 108.21354 520.5594 107.21354Q521.075 106.21354 522.0125 105.697914Q522.96564 105.18229 524.10626 105.18229Q525.3875 105.18229 526.2625 105.83854Q527.15314 106.49479 527.4969 107.68229L526.3719 107.947914Q526.075 107.010414 525.4969 106.58854Q524.9344 106.15104 524.075 106.15104Q523.09064 106.15104 522.41876 106.635414Q521.7625 107.104164 521.48126 107.90104Q521.21564 108.697914 521.21564 109.55729Q521.21564 110.65104 521.52814 111.46354Q521.85626 112.27604 522.52814 112.68229Q523.2 113.08854 523.9969 113.08854Q524.95 113.08854 525.60626 112.541664Q526.27814 111.99479 526.5125 110.90104ZM529.3719 113.916664L529.3719 105.322914L532.34064 105.322914Q533.34064 105.322914 533.8719 105.447914Q534.60626 105.61979 535.1219 106.05729Q535.8094 106.635414 536.1375 107.541664Q536.48126 108.43229 536.48126 109.572914Q536.48126 110.55729 536.2469 111.30729Q536.02814 112.05729 535.66876 112.55729Q535.3094 113.05729 534.8719 113.33854Q534.45 113.61979 533.85626 113.77604Q533.2625 113.916664 532.48126 113.916664L529.3719 113.916664ZM530.5125 112.90104L532.34064 112.90104Q533.2 112.90104 533.6844 112.74479Q534.16876 112.58854 534.45 112.291664Q534.85626 111.90104 535.075 111.21354Q535.3094 110.52604 535.3094 109.55729Q535.3094 108.21354 534.85626 107.49479Q534.41876 106.760414 533.79376 106.510414Q533.325 106.33854 532.325 106.33854L530.5125 106.33854L530.5125 112.90104ZM538.3719 113.916664L538.3719 105.322914L539.52814 105.322914L544.04376 112.072914L544.04376 105.322914L545.1375 105.322914L545.1375 113.916664L543.96564 113.916664L539.45 107.166664L539.45 113.916664L538.3719 113.916664Z" fill-rule="nonzero"/><path fill="#34a853" d="M485.45 127.916664L490.64615 136.91667L480.25385 136.91667Z" fill-rule="nonzero"/><path fill="#1a1a1a" d="M506.5125 134.90105L507.6375 135.19792Q507.27814 136.58855 506.35626 137.32292Q505.4344 138.0573 504.09064 138.0573Q502.7 138.0573 501.825 137.4948Q500.95 136.9323 500.4969 135.8698Q500.04376 134.79167 500.04376 133.5573Q500.04376 132.21355 500.5594 131.21355Q501.075 130.21355 502.0125 129.69792Q502.96564 129.1823 504.10626 129.1823Q505.3875 129.1823 506.2625 129.83855Q507.15314 130.4948 507.4969 131.6823L506.3719 131.94792Q506.075 131.01042 505.4969 130.58855Q504.9344 130.15105 504.075 130.15105Q503.09064 130.15105 502.41876 130.63542Q501.7625 131.10417 501.48126 131.90105Q501.21564 132.69792 501.21564 133.5573Q501.21564 134.65105 501.52814 135.46355Q501.85626 136.27605 502.52814 136.6823Q503.2 137.08855 503.9969 137.08855Q504.95 137.08855 505.60626 136.54167Q506.27814 135.9948 506.5125 134.90105ZM509.21564 137.91667L509.21564 129.32292L510.27814 129.32292L510.27814 137.91667L509.21564 137.91667ZM511.85626 134.8073Q511.85626 133.07292 512.8094 132.2448Q513.60626 131.5573 514.7625 131.5573Q516.04376 131.5573 516.85626 132.40105Q517.6844 133.22917 517.6844 134.71355Q517.6844 135.91667 517.325 136.60417Q516.96564 137.29167 516.2625 137.6823Q515.575 138.0573 514.7625 138.0573Q513.46564 138.0573 512.65314 137.22917Q511.85626 136.38542 511.85626 134.8073ZM512.9344 134.8073Q512.9344 135.9948 513.45 136.58855Q513.98126 137.1823 514.7625 137.1823Q515.5594 137.1823 516.075 136.58855Q516.59064 135.9948 516.59064 134.77605Q516.59064 133.6198 516.0594 133.02605Q515.54376 132.4323 514.7625 132.4323Q513.98126 132.4323 513.45 133.02605Q512.9344 133.60417 512.9344 134.8073ZM523.325 137.91667L523.325 136.9948Q522.59064 138.0573 521.34064 138.0573Q520.79376 138.0573 520.3094 137.85417Q519.84064 137.63542 519.60626 137.32292Q519.3719 136.9948 519.27814 136.52605Q519.21564 136.22917 519.21564 135.54167L519.21564 131.69792L520.27814 131.69792L520.27814 135.15105Q520.27814 135.96355 520.34064 136.26042Q520.4344 136.66667 520.7469 136.91667Q521.075 137.15105 521.5594 137.15105Q522.02814 137.15105 522.4344 136.91667Q522.85626 136.66667 523.02814 136.2448Q523.21564 135.82292 523.21564 135.02605L523.21564 131.69792L524.2625 131.69792L524.2625 137.91667L523.325 137.91667ZM530.27814 137.91667L530.27814 137.13542Q529.6844 138.0573 528.54376 138.0573Q527.79376 138.0573 527.16876 137.65105Q526.54376 137.22917 526.2 136.4948Q525.85626 135.76042 525.85626 134.8073Q525.85626 133.88542 526.16876 133.1198Q526.48126 132.35417 527.10626 131.96355Q527.73126 131.5573 528.4969 131.5573Q529.0594 131.5573 529.4969 131.79167Q529.9344 132.02605 530.21564 132.40105L530.21564 129.32292L531.2625 129.32292L531.2625 137.91667L530.27814 137.91667ZM526.95 134.8073Q526.95 136.01042 527.45 136.60417Q527.95 137.1823 528.6375 137.1823Q529.325 137.1823 529.8094 136.6198Q530.29376 136.0573 530.29376 134.90105Q530.29376 133.6198 529.79376 133.02605Q529.3094 132.4323 528.59064 132.4323Q527.8875 132.4323 527.41876 133.01042Q526.95 133.57292 526.95 134.8073ZM533.4969 137.91667L533.4969 132.51042L532.5594 132.51042L532.5594 131.69792L533.4969 131.69792L533.4969 131.02605Q533.4969 130.40105 533.60626 130.10417Q533.7625 129.6823 534.1375 129.4323Q534.52814 129.1823 535.21564 129.1823Q535.66876 129.1823 536.2 129.29167L536.04376 130.19792Q535.71564 130.15105 535.41876 130.15105Q534.9344 130.15105 534.73126 130.35417Q534.54376 130.5573 534.54376 131.1198L534.54376 131.69792L535.7625 131.69792L535.7625 132.51042L534.54376 132.51042L534.54376 137.91667L533.4969 137.91667ZM536.23126 137.91667L536.23126 131.69792L537.1844 131.69792L537.1844 132.63542Q537.54376 131.97917 537.84064 131.77605Q538.15314 131.5573 538.52814 131.5573Q539.0594 131.5573 539.60626 131.88542L539.2469 132.8698Q538.85626 132.63542 538.48126 132.63542Q538.1219 132.63542 537.84064 132.85417Q537.575 133.0573 537.46564 133.4323Q537.27814 133.9948 537.27814 134.65105L537.27814 137.91667L536.23126 137.91667ZM539.85626 134.8073Q539.85626 133.07292 540.8094 132.2448Q541.60626 131.5573 542.7625 131.5573Q544.04376 131.5573 544.85626 132.40105Q545.6844 133.22917 545.6844 134.71355Q545.6844 135.91667 545.325 136.60417Q544.96564 137.29167 544.2625 137.6823Q543.575 138.0573 542.7625 138.0573Q541.46564 138.0573 540.65314 137.22917Q539.85626 136.38542 539.85626 134.8073ZM540.9344 134.8073Q540.9344 135.9948 541.45 136.58855Q541.98126 137.1823 542.7625 137.1823Q543.5594 137.1823 544.075 136.58855Q544.59064 135.9948 544.59064 134.77605Q544.59064 133.6198 544.0594 133.02605Q543.54376 132.4323 542.7625 132.4323Q541.98126 132.4323 541.45 133.02605Q540.9344 133.60417 540.9344 134.8073ZM547.2469 137.91667L547.2469 131.69792L548.1844 131.69792L548.1844 132.57292Q548.8719 131.5573 550.16876 131.5573Q550.73126 131.5573 551.2 131.76042Q551.6844 131.96355 551.91876 132.29167Q552.15314 132.6198 552.2469 133.0573Q552.29376 133.35417 552.29376 134.08855L552.29376 137.91667L551.2469 137.91667L551.2469 134.13542Q551.2469 133.47917 551.1219 133.16667Q550.9969 132.85417 550.6844 132.66667Q550.3719 132.46355 549.95 132.46355Q549.27814 132.46355 548.77814 132.90105Q548.29376 133.32292 548.29376 134.51042L548.29376 137.91667L547.2469 137.91667ZM556.54376 136.97917L556.7 137.90105Q556.2469 137.9948 555.90314 137.9948Q555.325 137.9948 555.0125 137.82292Q554.7 137.63542 554.5594 137.33855Q554.4344 137.04167 554.4344 136.08855L554.4344 132.51042L553.66876 132.51042L553.66876 131.69792L554.4344 131.69792L554.4344 130.15105L555.48126 129.52605L555.48126 131.69792L556.54376 131.69792L556.54376 132.51042L555.48126 132.51042L555.48126 136.15105Q555.48126 136.60417 555.52814 136.72917Q555.59064 136.85417 555.71564 136.9323Q555.84064 137.01042 556.075 137.01042Q556.2625 137.01042 556.54376 136.97917Z" fill-rule="nonzero"/><path fill="#ff6d01" d="M485.45 151.91667L490.64615 160.91667L480.25385 160.91667Z" fill-rule="nonzero"/><path fill="#1a1a1a" d="M499.4344 161.91667L502.73126 153.32292L503.95 153.32292L507.46564 161.91667L506.1844 161.91667L505.16876 159.3073L501.59064 159.3073L500.6375 161.91667L499.4344 161.91667ZM501.91876 158.38542L504.825 158.38542L503.9344 156.01042Q503.5125 154.9323 503.325 154.22917Q503.15314 155.0573 502.85626 155.8698L501.91876 158.38542ZM507.2469 161.91667L507.2469 153.32292L508.3094 153.32292L508.3094 158.22917L510.79376 155.69792L512.16876 155.69792L509.77814 157.9948L512.40314 161.91667L511.10626 161.91667L509.04376 158.72917L508.3094 159.44792L508.3094 161.91667L507.2469 161.91667ZM517.3094 161.15105Q516.71564 161.65105 516.16876 161.85417Q515.6375 162.0573 515.0125 162.0573Q513.98126 162.0573 513.4344 161.5573Q512.8875 161.0573 512.8875 160.27605Q512.8875 159.82292 513.09064 159.44792Q513.29376 159.0573 513.6375 158.83855Q513.98126 158.60417 514.40314 158.4948Q514.7 158.40105 515.34064 158.32292Q516.60626 158.1823 517.21564 157.96355Q517.21564 157.7448 517.21564 157.69792Q517.21564 157.04167 516.91876 156.77605Q516.5125 156.4323 515.71564 156.4323Q514.98126 156.4323 514.6219 156.69792Q514.2625 156.94792 514.09064 157.60417L513.0594 157.46355Q513.2 156.8073 513.52814 156.40105Q513.85626 155.9948 514.46564 155.77605Q515.075 155.5573 515.8719 155.5573Q516.66876 155.5573 517.16876 155.7448Q517.66876 155.9323 517.90314 156.21355Q518.1375 156.4948 518.23126 156.9323Q518.27814 157.19792 518.27814 157.90105L518.27814 159.3073Q518.27814 160.77605 518.34064 161.16667Q518.41876 161.5573 518.6219 161.91667L517.5125 161.91667Q517.35626 161.58855 517.3094 161.15105ZM517.21564 158.79167Q516.6375 159.02605 515.4969 159.19792Q514.84064 159.29167 514.575 159.41667Q514.3094 159.52605 514.15314 159.7448Q514.0125 159.96355 514.0125 160.2448Q514.0125 160.66667 514.325 160.94792Q514.65314 161.22917 515.2625 161.22917Q515.8719 161.22917 516.34064 160.96355Q516.825 160.69792 517.04376 160.22917Q517.21564 159.8698 517.21564 159.1823L517.21564 158.79167ZM520.2469 161.91667L520.2469 155.69792L521.1844 155.69792L521.1844 156.57292Q521.48126 156.10417 521.96564 155.83855Q522.45 155.5573 523.075 155.5573Q523.7625 155.5573 524.2 155.83855Q524.65314 156.1198 524.825 156.63542Q525.575 155.5573 526.7469 155.5573Q527.6844 155.5573 528.16876 156.07292Q528.66876 156.57292 528.66876 157.65105L528.66876 161.91667L527.6219 161.91667L527.6219 157.9948Q527.6219 157.3698 527.5125 157.08855Q527.41876 156.8073 527.15314 156.63542Q526.8875 156.46355 526.5125 156.46355Q525.85626 156.46355 525.41876 156.90105Q524.9969 157.33855 524.9969 158.3073L524.9969 161.91667L523.9344 161.91667L523.9344 157.8698Q523.9344 157.16667 523.66876 156.82292Q523.41876 156.46355 522.84064 156.46355Q522.3875 156.46355 522.0125 156.69792Q521.6375 156.9323 521.46564 157.38542Q521.29376 157.83855 521.29376 158.6823L521.29376 161.91667L520.2469 161.91667ZM535.3094 161.15105Q534.71564 161.65105 534.16876 161.85417Q533.6375 162.0573 533.0125 162.0573Q531.98126 162.0573 531.4344 161.5573Q530.8875 161.0573 530.8875 160.27605Q530.8875 159.82292 531.09064 159.44792Q531.29376 159.0573 531.6375 158.83855Q531.98126 158.60417 532.40314 158.4948Q532.7 158.40105 533.34064 158.32292Q534.60626 158.1823 535.21564 157.96355Q535.21564 157.7448 535.21564 157.69792Q535.21564 157.04167 534.91876 156.77605Q534.5125 156.4323 533.71564 156.4323Q532.98126 156.4323 532.6219 156.69792Q532.2625 156.94792 532.09064 157.60417L531.0594 157.46355Q531.2 156.8073 531.52814 156.40105Q531.85626 155.9948 532.46564 155.77605Q533.075 155.5573 533.8719 155.5573Q534.66876 155.5573 535.16876 155.7448Q535.66876 155.9323 535.90314 156.21355Q536.1375 156.4948 536.23126 156.9323Q536.27814 157.19792 536.27814 157.90105L536.27814 159.3073Q536.27814 160.77605 536.34064 161.16667Q536.41876 161.5573 536.6219 161.91667L535.5125 161.91667Q535.35626 161.58855 535.3094 161.15105ZM535.21564 158.79167Q534.6375 159.02605 533.4969 159.19792Q532.84064 159.29167 532.575 159.41667Q532.3094 159.52605 532.15314 159.7448Q532.0125 159.96355 532.0125 160.2448Q532.0125 160.66667 532.325 160.94792Q532.65314 161.22917 533.2625 161.22917Q533.8719 161.22917 534.34064 160.96355Q534.825 160.69792 535.04376 160.22917Q535.21564 159.8698 535.21564 159.1823L535.21564 158.79167ZM538.2469 154.54167L538.2469 153.32292L539.3094 153.32292L539.3094 154.54167L538.2469 154.54167ZM538.2469 161.91667L538.2469 155.69792L539.3094 155.69792L539.3094 161.91667L538.2469 161.91667ZM546.2625 164.44792Q545.3875 163.33855 544.77814 161.8698Q544.1844 160.38542 544.1844 158.8073Q544.1844 157.41667 544.6219 156.13542Q545.15314 154.65105 546.2625 153.1823L547.0125 153.1823Q546.3094 154.40105 546.075 154.91667Q545.71564 155.72917 545.5125 156.60417Q545.2625 157.69792 545.2625 158.8073Q545.2625 161.63542 547.0125 164.44792L546.2625 164.44792ZM547.4344 161.91667L550.73126 153.32292L551.95 153.32292L555.46564 161.91667L554.1844 161.91667L553.16876 159.3073L549.59064 159.3073L548.6375 161.91667L547.4344 161.91667ZM549.91876 158.38542L552.825 158.38542L551.9344 156.01042Q551.5125 154.9323 551.325 154.22917Q551.15314 155.0573 550.85626 155.8698L549.91876 158.38542ZM554.6844 161.91667L554.6844 161.0573L558.65314 156.51042Q557.96564 156.54167 557.45 156.54167L554.91876 156.54167L554.91876 155.69792L560.0125 155.69792L560.0125 156.38542L556.6375 160.33855L555.98126 161.0573Q556.7 161.01042 557.3094 161.01042L560.2 161.01042L560.2 161.91667L554.6844 161.91667ZM564.325 161.91667L564.325 160.9948Q563.59064 162.0573 562.34064 162.0573Q561.79376 162.0573 561.3094 161.85417Q560.84064 161.63542 560.60626 161.32292Q560.3719 160.9948 560.27814 160.52605Q560.21564 160.22917 560.21564 159.54167L560.21564 155.69792L561.27814 155.69792L561.27814 159.15105Q561.27814 159.96355 561.34064 160.26042Q561.4344 160.66667 561.7469 160.91667Q562.075 161.15105 562.5594 161.15105Q563.02814 161.15105 563.4344 160.91667Q563.85626 160.66667 564.02814 160.2448Q564.21564 159.82292 564.21564 159.02605L564.21564 155.69792L565.2625 155.69792L565.2625 161.91667L564.325 161.91667ZM567.23126 161.91667L567.23126 155.69792L568.1844 155.69792L568.1844 156.63542Q568.54376 155.97917 568.84064 155.77605Q569.15314 155.5573 569.52814 155.5573Q570.0594 155.5573 570.60626 155.88542L570.2469 156.8698Q569.85626 156.63542 569.48126 156.63542Q569.1219 156.63542 568.84064 156.85417Q568.575 157.0573 568.46564 157.4323Q568.27814 157.9948 568.27814 158.65105L568.27814 161.91667L567.23126 161.91667ZM575.4969 159.91667L576.59064 160.04167Q576.34064 160.9948 575.6375 161.52605Q574.9344 162.0573 573.85626 162.0573Q572.4969 162.0573 571.6844 161.21355Q570.8875 160.3698 570.8875 158.85417Q570.8875 157.29167 571.7 156.4323Q572.5125 155.5573 573.79376 155.5573Q575.04376 155.5573 575.825 156.40105Q576.6219 157.2448 576.6219 158.79167Q576.6219 158.88542 576.6219 159.07292L571.98126 159.07292Q572.04376 160.10417 572.5594 160.65105Q573.075 161.1823 573.85626 161.1823Q574.4344 161.1823 574.84064 160.88542Q575.2625 160.57292 575.4969 159.91667ZM572.04376 158.21355L575.5125 158.21355Q575.45 157.41667 575.1219 157.02605Q574.60626 156.41667 573.8094 156.41667Q573.075 156.41667 572.575 156.90105Q572.09064 157.38542 572.04376 158.21355ZM578.9344 164.44792L578.1844 164.44792Q579.9344 161.63542 579.9344 158.8073Q579.9344 157.71355 579.6844 156.6198Q579.48126 155.7448 579.1219 154.9323Q578.8875 154.41667 578.1844 153.1823L578.9344 153.1823Q580.02814 154.65105 580.5594 156.13542Q581.0125 157.41667 581.0125 158.8073Q581.0125 160.38542 580.40314 161.8698Q579.79376 163.33855 578.9344 164.44792Z" fill-rule="nonzero"/><path fill="#46bdc6" d="M485.45 175.91667L490.64615 184.91667L480.25385 184.91667Z" fill-rule="nonzero"/><path fill="#1a1a1a" d="M499.4344 185.91667L502.73126 177.32292L503.95 177.32292L507.46564 185.91667L506.1844 185.91667L505.16876 183.3073L501.59064 183.3073L500.6375 185.91667L499.4344 185.91667ZM501.91876 182.38542L504.825 182.38542L503.9344 180.01042Q503.5125 178.9323 503.325 178.22917Q503.15314 179.0573 502.85626 179.8698L501.91876 182.38542ZM506.6844 185.91667L506.6844 185.0573L510.65314 180.51042Q509.96564 180.54167 509.45 180.54167L506.91876 180.54167L506.91876 179.69792L512.0125 179.69792L512.0125 180.38542L508.6375 184.33855L507.98126 185.0573Q508.7 185.01042 509.3094 185.01042L512.2 185.01042L512.2 185.91667L506.6844 185.91667ZM516.325 185.91667L516.325 184.9948Q515.59064 186.0573 514.34064 186.0573Q513.79376 186.0573 513.3094 185.85417Q512.84064 185.63542 512.60626 185.32292Q512.3719 184.9948 512.27814 184.52605Q512.21564 184.22917 512.21564 183.54167L512.21564 179.69792L513.27814 179.69792L513.27814 183.15105Q513.27814 183.96355 513.34064 184.26042Q513.4344 184.66667 513.7469 184.91667Q514.075 185.15105 514.5594 185.15105Q515.02814 185.15105 515.4344 184.91667Q515.85626 184.66667 516.02814 184.2448Q516.21564 183.82292 516.21564 183.02605L516.21564 179.69792L517.2625 179.69792L517.2625 185.91667L516.325 185.91667ZM519.23126 185.91667L519.23126 179.69792L520.1844 179.69792L520.1844 180.63542Q520.54376 179.97917 520.84064 179.77605Q521.15314 179.5573 521.52814 179.5573Q522.0594 179.5573 522.60626 179.88542L522.2469 180.8698Q521.85626 180.63542 521.48126 180.63542Q521.1219 180.63542 520.84064 180.85417Q520.575 181.0573 520.46564 181.4323Q520.27814 181.9948 520.27814 182.65105L520.27814 185.91667L519.23126 185.91667ZM527.4969 183.91667L528.59064 184.04167Q528.34064 184.9948 527.6375 185.52605Q526.9344 186.0573 525.85626 186.0573Q524.4969 186.0573 523.6844 185.21355Q522.8875 184.3698 522.8875 182.85417Q522.8875 181.29167 523.7 180.4323Q524.5125 179.5573 525.79376 179.5573Q527.04376 179.5573 527.825 180.40105Q528.6219 181.2448 528.6219 182.79167Q528.6219 182.88542 528.6219 183.07292L523.98126 183.07292Q524.04376 184.10417 524.5594 184.65105Q525.075 185.1823 525.85626 185.1823Q526.4344 185.1823 526.84064 184.88542Q527.2625 184.57292 527.4969 183.91667ZM524.04376 182.21355L527.5125 182.21355Q527.45 181.41667 527.1219 181.02605Q526.60626 180.41667 525.8094 180.41667Q525.075 180.41667 524.575 180.90105Q524.09064 181.38542 524.04376 182.21355Z" fill-rule="nonzero"/><path fill="#7baaf7" d="M485.45 199.91667L490.64615 208.91667L480.25385 208.91667Z" fill-rule="nonzero"/><path fill="#1a1a1a" d="M500.4344 209.91667L500.4344 201.32292L506.23126 201.32292L506.23126 202.33855L501.575 202.33855L501.575 204.9948L505.60626 204.9948L505.60626 206.01042L501.575 206.01042L501.575 209.91667L500.4344 209.91667ZM511.3094 209.15105Q510.71564 209.65105 510.16876 209.85417Q509.6375 210.0573 509.0125 210.0573Q507.98126 210.0573 507.4344 209.5573Q506.8875 209.0573 506.8875 208.27605Q506.8875 207.82292 507.09064 207.44792Q507.29376 207.0573 507.6375 206.83855Q507.98126 206.60417 508.40314 206.4948Q508.7 206.40105 509.34064 206.32292Q510.60626 206.1823 511.21564 205.96355Q511.21564 205.7448 511.21564 205.69792Q511.21564 205.04167 510.91876 204.77605Q510.5125 204.4323 509.71564 204.4323Q508.98126 204.4323 508.6219 204.69792Q508.2625 204.94792 508.09064 205.60417L507.0594 205.46355Q507.2 204.8073 507.52814 204.40105Q507.85626 203.9948 508.46564 203.77605Q509.075 203.5573 509.8719 203.5573Q510.66876 203.5573 511.16876 203.7448Q511.66876 203.9323 511.90314 204.21355Q512.1375 204.4948 512.23126 204.9323Q512.27814 205.19792 512.27814 205.90105L512.27814 207.3073Q512.27814 208.77605 512.34064 209.16667Q512.41876 209.5573 512.6219 209.91667L511.5125 209.91667Q511.35626 209.58855 511.3094 209.15105ZM511.21564 206.79167Q510.6375 207.02605 509.4969 207.19792Q508.84064 207.29167 508.575 207.41667Q508.3094 207.52605 508.15314 207.7448Q508.0125 207.96355 508.0125 208.2448Q508.0125 208.66667 508.325 208.94792Q508.65314 209.22917 509.2625 209.22917Q509.8719 209.22917 510.34064 208.96355Q510.825 208.69792 511.04376 208.22917Q511.21564 207.8698 511.21564 207.1823L511.21564 206.79167ZM513.825 208.0573L514.85626 207.90105Q514.95 208.52605 515.34064 208.85417Q515.7469 209.1823 516.48126 209.1823Q517.2 209.1823 517.54376 208.90105Q517.90314 208.60417 517.90314 208.19792Q517.90314 207.83855 517.59064 207.63542Q517.3719 207.4948 516.5125 207.27605Q515.35626 206.97917 514.90314 206.77605Q514.46564 206.5573 514.23126 206.1823Q513.9969 205.8073 513.9969 205.33855Q513.9969 204.9323 514.1844 204.57292Q514.3719 204.21355 514.7 203.97917Q514.95 203.8073 515.3719 203.6823Q515.79376 203.5573 516.29376 203.5573Q517.0125 203.5573 517.5594 203.77605Q518.1219 203.97917 518.3875 204.33855Q518.65314 204.69792 518.7469 205.29167L517.71564 205.4323Q517.65314 204.96355 517.3094 204.69792Q516.98126 204.41667 516.35626 204.41667Q515.6375 204.41667 515.325 204.66667Q515.0125 204.90105 515.0125 205.22917Q515.0125 205.4323 515.1375 205.58855Q515.27814 205.76042 515.54376 205.8698Q515.7 205.9323 516.48126 206.13542Q517.60626 206.44792 518.04376 206.63542Q518.48126 206.82292 518.73126 207.1823Q518.98126 207.54167 518.98126 208.08855Q518.98126 208.6198 518.66876 209.08855Q518.3719 209.54167 517.79376 209.8073Q517.21564 210.0573 516.48126 210.0573Q515.2625 210.0573 514.6219 209.5573Q513.9969 209.04167 513.825 208.0573ZM523.54376 208.97917L523.7 209.90105Q523.2469 209.9948 522.90314 209.9948Q522.325 209.9948 522.0125 209.82292Q521.7 209.63542 521.5594 209.33855Q521.4344 209.04167 521.4344 208.08855L521.4344 204.51042L520.66876 204.51042L520.66876 203.69792L521.4344 203.69792L521.4344 202.15105L522.48126 201.52605L522.48126 203.69792L523.54376 203.69792L523.54376 204.51042L522.48126 204.51042L522.48126 208.15105Q522.48126 208.60417 522.52814 208.72917Q522.59064 208.85417 522.71564 208.9323Q522.84064 209.01042 523.075 209.01042Q523.2625 209.01042 523.54376 208.97917ZM524.21564 209.91667L524.21564 201.32292L525.27814 201.32292L525.27814 209.91667L524.21564 209.91667ZM527.2 212.3073L527.075 211.32292Q527.41876 211.41667 527.6844 211.41667Q528.02814 211.41667 528.23126 211.29167Q528.45 211.1823 528.59064 210.97917Q528.6844 210.8073 528.91876 210.1823Q528.9344 210.10417 529.0125 209.9323L526.6375 203.69792L527.77814 203.69792L529.075 207.29167Q529.325 207.97917 529.52814 208.7448Q529.71564 208.01042 529.96564 207.32292L531.29376 203.69792L532.34064 203.69792L529.98126 210.02605Q529.59064 211.04167 529.3875 211.4323Q529.10626 211.96355 528.73126 212.19792Q528.3719 212.44792 527.8719 212.44792Q527.575 212.44792 527.2 212.3073Z" fill-rule="nonzero"/><path fill="#757575" d="M20.01875 37.55L20.01875 23.2375L25.39375 23.2375Q27.034374 23.2375 28.01875 23.675Q29.003124 24.096874 29.565624 25.003124Q30.128124 25.909374 30.128124 26.89375Q30.128124 27.815624 29.628124 28.628124Q29.14375 29.440624 28.128124 29.925Q29.425 30.315624 30.128124 31.2375Q30.83125 32.14375 30.83125 33.39375Q30.83125 34.409374 30.39375 35.26875Q29.971874 36.128124 29.346874 36.596874Q28.721874 37.065624 27.784374 37.315624Q26.846874 37.55 25.471874 37.55L20.01875 37.55ZM21.909374 29.253124L25.003124 29.253124Q26.26875 29.253124 26.815624 29.08125Q27.534374 28.8625 27.89375 28.378124Q28.26875 27.878124 28.26875 27.1125Q28.26875 26.409374 27.925 25.8625Q27.58125 25.315624 26.940624 25.128124Q26.315624 24.925 24.76875 24.925L21.909374 24.925L21.909374 29.253124ZM21.909374 35.8625L25.471874 35.8625Q26.39375 35.8625 26.76875 35.784374Q27.425 35.675 27.8625 35.409374Q28.3 35.128124 28.58125 34.6125Q28.8625 34.08125 28.8625 33.39375Q28.8625 32.596874 28.45625 32.003124Q28.05 31.409374 27.315624 31.175Q26.58125 30.940624 25.221874 30.940624L21.909374 30.940624L21.909374 35.8625ZM39.64375 36.26875Q38.659374 37.096874 37.753124 37.440624Q36.846874 37.784374 35.815624 37.784374Q34.1125 37.784374 33.190624 36.95625Q32.26875 36.1125 32.26875 34.815624Q32.26875 34.05 32.6125 33.425Q32.971874 32.8 33.534374 32.425Q34.096874 32.034374 34.8 31.83125Q35.315624 31.70625 36.3625 31.565624Q38.4875 31.315624 39.4875 30.971874Q39.503124 30.6125 39.503124 30.503124Q39.503124 29.440624 39.003124 28.9875Q38.33125 28.39375 37.003124 28.39375Q35.753124 28.39375 35.159374 28.83125Q34.58125 29.26875 34.3 30.378124L32.58125 30.14375Q32.815624 29.034374 33.346874 28.3625Q33.878124 27.675 34.89375 27.315624Q35.909374 26.940624 37.253124 26.940624Q38.58125 26.940624 39.409374 27.253124Q40.2375 27.565624 40.628124 28.05Q41.01875 28.51875 41.175 29.2375Q41.26875 29.690624 41.26875 30.8625L41.26875 33.20625Q41.26875 35.659374 41.378124 36.315624Q41.4875 36.95625 41.83125 37.55L39.9875 37.55Q39.721874 37.003124 39.64375 36.26875ZM39.4875 32.346874Q38.534374 32.7375 36.6125 33.003124Q35.534374 33.159374 35.08125 33.3625Q34.64375 33.55 34.39375 33.925Q34.14375 34.3 34.14375 34.76875Q34.14375 35.471874 34.675 35.940624Q35.20625 36.409374 36.2375 36.409374Q37.253124 36.409374 38.034374 35.971874Q38.83125 35.51875 39.20625 34.753124Q39.4875 34.14375 39.4875 32.9875L39.4875 32.346874ZM43.8625 37.55L43.8625 27.175L45.45625 27.175L45.45625 28.659374Q46.596874 26.940624 48.753124 26.940624Q49.690624 26.940624 50.471874 27.284374Q51.26875 27.6125 51.659374 28.159374Q52.05 28.70625 52.20625 29.45625Q52.3 29.95625 52.3 31.175L52.3 37.55L50.534374 37.55L50.534374 31.2375Q50.534374 30.159374 50.33125 29.628124Q50.128124 29.096874 49.596874 28.784374Q49.08125 28.471874 48.378124 28.471874Q47.253124 28.471874 46.440624 29.190624Q45.628124 29.89375 45.628124 31.878124L45.628124 37.55L43.8625 37.55ZM60.596874 37.55L60.596874 36.2375Q59.6125 37.784374 57.690624 37.784374Q56.45625 37.784374 55.409374 37.096874Q54.378124 36.409374 53.8 35.190624Q53.2375 33.971874 53.2375 32.378124Q53.2375 30.815624 53.753124 29.55Q54.26875 28.284374 55.3 27.6125Q56.346874 26.940624 57.6125 26.940624Q58.55 26.940624 59.284374 27.346874Q60.01875 27.7375 60.4875 28.3625L60.4875 23.2375L62.221874 23.2375L62.221874 37.55L60.596874 37.55ZM55.034374 32.378124Q55.034374 34.3625 55.878124 35.346874Q56.721874 36.33125 57.8625 36.33125Q59.01875 36.33125 59.815624 35.39375Q60.628124 34.45625 60.628124 32.51875Q60.628124 30.39375 59.8 29.39375Q58.9875 28.39375 57.784374 28.39375Q56.6125 28.39375 55.815624 29.3625Q55.034374 30.315624 55.034374 32.378124ZM66.78438 37.55L63.6125 27.175L65.425 27.175L67.08125 33.159374L67.69063 35.39375Q67.7375 35.221874 68.22188 33.253124L69.87813 27.175L71.69063 27.175L73.2375 33.190624L73.75313 35.175L74.34688 33.175L76.12813 27.175L77.83125 27.175L74.59688 37.55L72.76875 37.55L71.1125 31.33125L70.72188 29.565624L68.6125 37.55L66.78438 37.55ZM79.87813 25.253124L79.87813 23.2375L81.64375 23.2375L81.64375 25.253124L79.87813 25.253124ZM79.87813 37.55L79.87813 27.175L81.64375 27.175L81.64375 37.55L79.87813 37.55ZM87.70625 35.971874L87.95625 37.534374Q87.22188 37.690624 86.62813 37.690624Q85.675 37.690624 85.14375 37.39375Q84.62813 37.08125 84.40938 36.596874Q84.19063 36.096874 84.19063 34.51875L84.19063 28.55L82.90938 28.55L82.90938 27.175L84.19063 27.175L84.19063 24.6125L85.94063 23.55L85.94063 27.175L87.70625 27.175L87.70625 28.55L85.94063 28.55L85.94063 34.6125Q85.94063 35.3625 86.03438 35.58125Q86.12813 35.784374 86.33125 35.925Q86.55 36.05 86.94063 36.05Q87.22188 36.05 87.70625 35.971874ZM89.8625 37.55L89.8625 23.2375L91.62813 23.2375L91.62813 28.3625Q92.8625 26.940624 94.7375 26.940624Q95.87813 26.940624 96.72188 27.39375Q97.58125 27.846874 97.94063 28.659374Q98.31563 29.45625 98.31563 30.971874L98.31563 37.55L96.56563 37.55L96.56563 30.971874Q96.56563 29.659374 95.9875 29.065624Q95.40938 28.45625 94.37813 28.45625Q93.59688 28.45625 92.89375 28.8625Q92.20625 29.26875 91.90938 29.971874Q91.62813 30.659374 91.62813 31.878124L91.62813 37.55L89.8625 37.55ZM115.4875 23.2375L117.37813 23.2375L117.37813 31.503124Q117.37813 33.659374 116.89375 34.940624Q116.40938 36.20625 115.12813 37.003124Q113.8625 37.8 111.78438 37.8Q109.76875 37.8 108.4875 37.1125Q107.22188 36.409374 106.675 35.096874Q106.12813 33.784374 106.12813 31.503124L106.12813 23.2375L108.01875 23.2375L108.01875 31.4875Q108.01875 33.3625 108.3625 34.253124Q108.70625 35.128124 109.55 35.6125Q110.39375 36.08125 111.62813 36.08125Q113.70625 36.08125 114.59688 35.14375Q115.4875 34.190624 115.4875 31.4875L115.4875 23.2375ZM118.45625 32.95625L120.2375 32.8Q120.3625 33.8625 120.81563 34.55Q121.28438 35.2375 122.25313 35.675Q123.2375 36.096874 124.47188 36.096874Q125.55 36.096874 126.37813 35.784374Q127.20625 35.45625 127.6125 34.89375Q128.01875 34.33125 128.01875 33.659374Q128.01875 32.9875 127.62813 32.4875Q127.2375 31.9875 126.34688 31.64375Q125.76875 31.409374 123.78438 30.940624Q121.81563 30.471874 121.03438 30.05Q120.00313 29.51875 119.50313 28.721874Q119.00313 27.925 119.00313 26.940624Q119.00313 25.846874 119.6125 24.909374Q120.22188 23.971874 121.40938 23.4875Q122.59688 22.9875 124.03438 22.9875Q125.62813 22.9875 126.84688 23.503124Q128.06563 24.01875 128.70625 25.01875Q129.3625 26.003124 129.40938 27.26875L127.59688 27.409374Q127.45625 26.05 126.6125 25.3625Q125.76875 24.659374 124.1125 24.659374Q122.39375 24.659374 121.59688 25.3Q120.81563 25.925 120.81563 26.8Q120.81563 27.58125 121.37813 28.08125Q121.925 28.58125 124.2375 29.096874Q126.55 29.6125 127.40938 30.003124Q128.65938 30.58125 129.25313 31.471874Q129.84688 32.346874 129.84688 33.503124Q129.84688 34.64375 129.19063 35.659374Q128.53438 36.675 127.3 37.2375Q126.08125 37.8 124.55 37.8Q122.6125 37.8 121.3 37.2375Q119.9875 36.659374 119.2375 35.51875Q118.4875 34.378124 118.45625 32.95625ZM130.51875 37.55L136.01875 23.2375L138.06563 23.2375L143.925 37.55L141.76875 37.55L140.09688 33.20625L134.1125 33.20625L132.53438 37.55L130.51875 37.55ZM134.65938 31.675L139.50313 31.675L138.01875 27.70625Q137.33125 25.89375 137.00313 24.7375Q136.72188 26.1125 136.22188 27.471874L134.65938 31.675ZM148.22188 41.753124Q146.76875 39.925 145.76875 37.471874Q144.76875 35.003124 144.76875 32.3625Q144.76875 30.034374 145.51875 27.909374Q146.39375 25.440624 148.22188 22.9875L149.4875 22.9875Q148.3 25.01875 147.925 25.89375Q147.33125 27.2375 146.9875 28.70625Q146.56563 30.534374 146.56563 32.378124Q146.56563 37.065624 149.4875 41.753124L148.22188 41.753124ZM151.37813 33.8L153.22188 33.64375Q153.425 34.9875 154.175 35.675Q154.925 36.346874 155.9875 36.346874Q157.25313 36.346874 158.12813 35.39375Q159.00313 34.440624 159.00313 32.846874Q159.00313 31.346874 158.15938 30.4875Q157.31563 29.6125 155.95625 29.6125Q155.09688 29.6125 154.40938 30.003124Q153.7375 30.378124 153.34688 31.003124L151.69063 30.784374L153.08125 23.425L160.20625 23.425L160.20625 25.1125L154.4875 25.1125L153.72188 28.95625Q155.00313 28.05 156.425 28.05Q158.3 28.05 159.58125 29.3625Q160.87813 30.659374 160.87813 32.690624Q160.87813 34.64375 159.7375 36.05Q158.3625 37.8 155.9875 37.8Q154.03438 37.8 152.78438 36.70625Q151.55 35.6125 151.37813 33.8ZM162.37813 30.4875Q162.37813 27.95625 162.89375 26.409374Q163.425 24.846874 164.45625 24.01875Q165.4875 23.175 167.05 23.175Q168.20625 23.175 169.06563 23.64375Q169.94063 24.096874 170.50313 24.971874Q171.06563 25.846874 171.39375 27.1125Q171.72188 28.3625 171.72188 30.4875Q171.72188 33.003124 171.19063 34.55Q170.675 36.096874 169.64375 36.95625Q168.62813 37.8 167.05 37.8Q164.97188 37.8 163.8 36.315624Q162.37813 34.51875 162.37813 30.4875ZM164.19063 30.4875Q164.19063 34.01875 165.00313 35.190624Q165.83125 36.346874 167.05 36.346874Q168.25313 36.346874 169.08125 35.175Q169.90938 34.003124 169.90938 30.4875Q169.90938 26.95625 169.08125 25.8Q168.25313 24.628124 167.03438 24.628124Q165.81563 24.628124 165.09688 25.659374Q164.19063 26.95625 164.19063 30.4875ZM173.70625 26.675Q173.70625 25.14375 174.47188 24.065624Q175.25313 22.9875 176.72188 22.9875Q178.06563 22.9875 178.94063 23.95625Q179.83125 24.909374 179.83125 26.784374Q179.83125 28.596874 178.94063 29.58125Q178.05 30.55 176.7375 30.55Q175.44063 30.55 174.56563 29.596874Q173.70625 28.628124 173.70625 26.675ZM176.76875 24.20625Q176.1125 24.20625 175.675 24.76875Q175.25313 25.33125 175.25313 26.846874Q175.25313 28.221874 175.69063 28.784374Q176.12813 29.346874 176.76875 29.346874Q177.44063 29.346874 177.8625 28.784374Q178.3 28.20625 178.3 26.70625Q178.3 25.315624 177.8625 24.76875Q177.425 24.20625 176.76875 24.20625ZM176.78438 38.08125L184.6125 22.9875L186.03438 22.9875L178.2375 38.08125L176.78438 38.08125ZM182.97188 34.190624Q182.97188 32.64375 183.7375 31.58125Q184.51875 30.503124 185.9875 30.503124Q187.33125 30.503124 188.20625 31.471874Q189.09688 32.425 189.09688 34.3Q189.09688 36.1125 188.20625 37.096874Q187.31563 38.08125 186.00313 38.08125Q184.70625 38.08125 183.83125 37.1125Q182.97188 36.128124 182.97188 34.190624ZM186.03438 31.721874Q185.37813 31.721874 184.94063 32.284374Q184.50313 32.846874 184.50313 34.3625Q184.50313 35.7375 184.94063 36.3Q185.37813 36.8625 186.03438 36.8625Q186.70625 36.8625 187.12813 36.3Q187.56563 35.7375 187.56563 34.221874Q187.56563 32.846874 187.12813 32.284374Q186.69063 31.721874 186.03438 31.721874ZM193.01875 41.753124L191.76875 41.753124Q194.675 37.065624 194.675 32.378124Q194.675 30.534374 194.26875 28.7375Q193.925 27.26875 193.33125 25.925Q192.95625 25.034374 191.76875 22.9875L193.01875 22.9875Q194.8625 25.440624 195.7375 27.909374Q196.4875 30.034374 196.4875 32.3625Q196.4875 35.003124 195.47188 37.471874Q194.47188 39.925 193.01875 41.753124ZM211.64375 36.26875Q210.65938 37.096874 209.75313 37.440624Q208.84688 37.784374 207.81563 37.784374Q206.1125 37.784374 205.19063 36.95625Q204.26875 36.1125 204.26875 34.815624Q204.26875 34.05 204.6125 33.425Q204.97188 32.8 205.53438 32.425Q206.09688 32.034374 206.8 31.83125Q207.31563 31.70625 208.3625 31.565624Q210.4875 31.315624 211.4875 30.971874Q211.50313 30.6125 211.50313 30.503124Q211.50313 29.440624 211.00313 28.9875Q210.33125 28.39375 209.00313 28.39375Q207.75313 28.39375 207.15938 28.83125Q206.58125 29.26875 206.3 30.378124L204.58125 30.14375Q204.81563 29.034374 205.34688 28.3625Q205.87813 27.675 206.89375 27.315624Q207.90938 26.940624 209.25313 26.940624Q210.58125 26.940624 211.40938 27.253124Q212.2375 27.565624 212.62813 28.05Q213.01875 28.51875 213.175 29.2375Q213.26875 29.690624 213.26875 30.8625L213.26875 33.20625Q213.26875 35.659374 213.37813 36.315624Q213.4875 36.95625 213.83125 37.55L211.9875 37.55Q211.72188 37.003124 211.64375 36.26875ZM211.4875 32.346874Q210.53438 32.7375 208.6125 33.003124Q207.53438 33.159374 207.08125 33.3625Q206.64375 33.55 206.39375 33.925Q206.14375 34.3 206.14375 34.76875Q206.14375 35.471874 206.675 35.940624Q207.20625 36.409374 208.2375 36.409374Q209.25313 36.409374 210.03438 35.971874Q210.83125 35.51875 211.20625 34.753124Q211.4875 34.14375 211.4875 32.9875L211.4875 32.346874ZM215.8625 37.55L215.8625 27.175L217.45625 27.175L217.45625 28.659374Q218.59688 26.940624 220.75313 26.940624Q221.69063 26.940624 222.47188 27.284374Q223.26875 27.6125 223.65938 28.159374Q224.05 28.70625 224.20625 29.45625Q224.3 29.95625 224.3 31.175L224.3 37.55L222.53438 37.55L222.53438 31.2375Q222.53438 30.159374 222.33125 29.628124Q222.12813 29.096874 221.59688 28.784374Q221.08125 28.471874 220.37813 28.471874Q219.25313 28.471874 218.44063 29.190624Q217.62813 29.89375 217.62813 31.878124L217.62813 37.55L215.8625 37.55ZM232.59688 37.55L232.59688 36.2375Q231.6125 37.784374 229.69063 37.784374Q228.45625 37.784374 227.40938 37.096874Q226.37813 36.409374 225.8 35.190624Q225.2375 33.971874 225.2375 32.378124Q225.2375 30.815624 225.75313 29.55Q226.26875 28.284374 227.3 27.6125Q228.34688 26.940624 229.6125 26.940624Q230.55 26.940624 231.28438 27.346874Q232.01875 27.7375 232.4875 28.3625L232.4875 23.2375L234.22188 23.2375L234.22188 37.55L232.59688 37.55ZM227.03438 32.378124Q227.03438 34.3625 227.87813 35.346874Q228.72188 36.33125 229.8625 36.33125Q231.01875 36.33125 231.81563 35.39375Q232.62813 34.45625 232.62813 32.51875Q232.62813 30.39375 231.8 29.39375Q230.9875 28.39375 229.78438 28.39375Q228.6125 28.39375 227.81563 29.3625Q227.03438 30.315624 227.03438 32.378124ZM241.51875 37.55L247.01875 23.2375L249.06563 23.2375L254.925 37.55L252.76875 37.55L251.09688 33.20625L245.1125 33.20625L243.53438 37.55L241.51875 37.55ZM245.65938 31.675L250.50313 31.675L249.01875 27.70625Q248.33125 25.89375 248.00313 24.7375Q247.72188 26.1125 247.22188 27.471874L245.65938 31.675ZM255.15938 34.45625L256.90936 34.175Q257.05 35.221874 257.72186 35.784374Q258.39374 36.33125 259.59686 36.33125Q260.8 36.33125 261.3781 35.846874Q261.97186 35.346874 261.97186 34.690624Q261.97186 34.096874 261.45624 33.753124Q261.09686 33.51875 259.65936 33.159374Q257.72186 32.659374 256.97186 32.315624Q256.2375 31.95625 255.84688 31.33125Q255.45625 30.690624 255.45625 29.925Q255.45625 29.2375 255.76875 28.64375Q256.09686 28.05 256.64374 27.659374Q257.05 27.3625 257.7531 27.159374Q258.47186 26.940624 259.28436 26.940624Q260.5031 26.940624 261.425 27.3Q262.34686 27.64375 262.78436 28.253124Q263.22186 28.846874 263.39374 29.846874L261.675 30.08125Q261.55 29.284374 260.9875 28.846874Q260.425 28.39375 259.40936 28.39375Q258.1906 28.39375 257.675 28.8Q257.15936 29.190624 257.15936 29.721874Q257.15936 30.065624 257.3781 30.346874Q257.58124 30.628124 258.05 30.815624Q258.3156 30.909374 259.59686 31.253124Q261.47186 31.753124 262.20624 32.08125Q262.9406 32.39375 263.3625 33.003124Q263.78436 33.596874 263.78436 34.503124Q263.78436 35.378124 263.26874 36.159374Q262.7531 36.940624 261.78436 37.3625Q260.8156 37.784374 259.59686 37.784374Q257.58124 37.784374 256.51874 36.940624Q255.45625 36.096874 255.15938 34.45625ZM265.8781 25.253124L265.8781 23.2375L267.64374 23.2375L267.64374 25.253124L265.8781 25.253124ZM265.8781 37.55L265.8781 27.175L267.64374 27.175L267.64374 37.55L265.8781 37.55ZM276.64374 36.26875Q275.65936 37.096874 274.7531 37.440624Q273.84686 37.784374 272.8156 37.784374Q271.1125 37.784374 270.1906 36.95625Q269.26874 36.1125 269.26874 34.815624Q269.26874 34.05 269.6125 33.425Q269.97186 32.8 270.53436 32.425Q271.09686 32.034374 271.8 31.83125Q272.3156 31.70625 273.3625 31.565624Q275.4875 31.315624 276.4875 30.971874Q276.5031 30.6125 276.5031 30.503124Q276.5031 29.440624 276.0031 28.9875Q275.33124 28.39375 274.0031 28.39375Q272.7531 28.39375 272.15936 28.83125Q271.58124 29.26875 271.3 30.378124L269.58124 30.14375Q269.8156 29.034374 270.34686 28.3625Q270.8781 27.675 271.89374 27.315624Q272.90936 26.940624 274.2531 26.940624Q275.58124 26.940624 276.40936 27.253124Q277.2375 27.565624 277.6281 28.05Q278.01874 28.51875 278.175 29.2375Q278.26874 29.690624 278.26874 30.8625L278.26874 33.20625Q278.26874 35.659374 278.3781 36.315624Q278.4875 36.95625 278.83124 37.55L276.9875 37.55Q276.72186 37.003124 276.64374 36.26875ZM276.4875 32.346874Q275.53436 32.7375 273.6125 33.003124Q272.53436 33.159374 272.08124 33.3625Q271.64374 33.55 271.39374 33.925Q271.14374 34.3 271.14374 34.76875Q271.14374 35.471874 271.675 35.940624Q272.20624 36.409374 273.2375 36.409374Q274.2531 36.409374 275.03436 35.971874Q275.83124 35.51875 276.20624 34.753124Q276.4875 34.14375 276.4875 32.9875L276.4875 32.346874ZM284.22186 41.753124Q282.76874 39.925 281.76874 37.471874Q280.76874 35.003124 280.76874 32.3625Q280.76874 30.034374 281.51874 27.909374Q282.39374 25.440624 284.22186 22.9875L285.4875 22.9875Q284.3 25.01875 283.925 25.89375Q283.33124 27.2375 282.9875 28.70625Q282.5656 30.534374 282.5656 32.378124Q282.5656 37.065624 285.4875 41.753124L284.22186 41.753124ZM287.3781 33.8L289.22186 33.64375Q289.425 34.9875 290.175 35.675Q290.925 36.346874 291.9875 36.346874Q293.2531 36.346874 294.1281 35.39375Q295.0031 34.440624 295.0031 32.846874Q295.0031 31.346874 294.15936 30.4875Q293.3156 29.6125 291.95624 29.6125Q291.09686 29.6125 290.40936 30.003124Q289.7375 30.378124 289.34686 31.003124L287.6906 30.784374L289.08124 23.425L296.20624 23.425L296.20624 25.1125L290.4875 25.1125L289.72186 28.95625Q291.0031 28.05 292.425 28.05Q294.3 28.05 295.58124 29.3625Q296.8781 30.659374 296.8781 32.690624Q296.8781 34.64375 295.7375 36.05Q294.3625 37.8 291.9875 37.8Q290.03436 37.8 288.78436 36.70625Q287.55 35.6125 287.3781 33.8ZM298.3781 30.4875Q298.3781 27.95625 298.89374 26.409374Q299.425 24.846874 300.45624 24.01875Q301.4875 23.175 303.05 23.175Q304.20624 23.175 305.0656 23.64375Q305.9406 24.096874 306.5031 24.971874Q307.0656 25.846874 307.39374 27.1125Q307.72186 28.3625 307.72186 30.4875Q307.72186 33.003124 307.1906 34.55Q306.675 36.096874 305.64374 36.95625Q304.6281 37.8 303.05 37.8Q300.97186 37.8 299.8 36.315624Q298.3781 34.51875 298.3781 30.4875ZM300.1906 30.4875Q300.1906 34.01875 301.0031 35.190624Q301.83124 36.346874 303.05 36.346874Q304.2531 36.346874 305.08124 35.175Q305.90936 34.003124 305.90936 30.4875Q305.90936 26.95625 305.08124 25.8Q304.2531 24.628124 303.03436 24.628124Q301.8156 24.628124 301.09686 25.659374Q300.1906 26.95625 300.1906 30.4875ZM309.70624 26.675Q309.70624 25.14375 310.47186 24.065624Q311.2531 22.9875 312.72186 22.9875Q314.0656 22.9875 314.9406 23.95625Q315.83124 24.909374 315.83124 26.784374Q315.83124 28.596874 314.9406 29.58125Q314.05 30.55 312.7375 30.55Q311.4406 30.55 310.5656 29.596874Q309.70624 28.628124 309.70624 26.675ZM312.76874 24.20625Q312.1125 24.20625 311.675 24.76875Q311.2531 25.33125 311.2531 26.846874Q311.2531 28.221874 311.6906 28.784374Q312.1281 29.346874 312.76874 29.346874Q313.4406 29.346874 313.8625 28.784374Q314.3 28.20625 314.3 26.70625Q314.3 25.315624 313.8625 24.76875Q313.425 24.20625 312.76874 24.20625ZM312.78436 38.08125L320.6125 22.9875L322.03436 22.9875L314.2375 38.08125L312.78436 38.08125ZM318.97186 34.190624Q318.97186 32.64375 319.7375 31.58125Q320.51874 30.503124 321.9875 30.503124Q323.33124 30.503124 324.20624 31.471874Q325.09686 32.425 325.09686 34.3Q325.09686 36.1125 324.20624 37.096874Q323.3156 38.08125 322.0031 38.08125Q320.70624 38.08125 319.83124 37.1125Q318.97186 36.128124 318.97186 34.190624ZM322.03436 31.721874Q321.3781 31.721874 320.9406 32.284374Q320.5031 32.846874 320.5031 34.3625Q320.5031 35.7375 320.9406 36.3Q321.3781 36.8625 322.03436 36.8625Q322.70624 36.8625 323.1281 36.3Q323.5656 35.7375 323.5656 34.221874Q323.5656 32.846874 323.1281 32.284374Q322.6906 31.721874 322.03436 31.721874ZM329.01874 41.753124L327.76874 41.753124Q330.675 37.065624 330.675 32.378124Q330.675 30.534374 330.26874 28.7375Q329.925 27.26875 329.33124 25.925Q328.95624 25.034374 327.76874 22.9875L329.01874 22.9875Q330.8625 25.440624 331.7375 27.909374Q332.4875 30.034374 332.4875 32.3625Q332.4875 35.003124 331.47186 37.471874Q330.47186 39.925 329.01874 41.753124Z" fill-rule="nonzero"/></svg>