<svg version="1.1" viewBox="0.0 0.0 770.0 455.0" fill="none" stroke="none" stroke-linecap="square" stroke-miterlimit="10" width="770" height="455" xmlns:xlink="http://www.w3.org/1999/xlink" xmlns="http://www.w3.org/2000/svg"><path fill="#ffffff" d="M0 0L770.0 0L770.0 455.0L0 455.0L0 0Z" fill-rule="nonzero"/><path fill="#ff994d" d="M379.8754 61.987595C381.5832 61.94031 383.29153 61.916668 385.0 61.916668L385.0 247.08333Z" fill-rule="nonzero"/><path fill="#71c287" d="M374.7547 62.20032C376.46054 62.105793 378.16757 62.034878 379.8754 61.987595L385.0 247.08333Z" fill-rule="nonzero"/><path fill="#fcd04f" d="M369.64185 62.554688C371.34442 62.412983 373.04886 62.29485 374.7547 62.20032L385.0 247.08333Z" fill-rule="nonzero"/><path fill="#f07b72" d="M359.45538 63.687134C362.83975 63.215733 366.23657 62.838104 369.64185 62.554688L385.0 247.08333Z" fill-rule="nonzero"/><path fill="#7baaf7" d="M344.3321 66.43778C349.33295 65.311966 354.3784 64.39429 359.45538 63.687134L385.0 247.08333Z" fill-rule="nonzero"/><path fill="#46bdc6" d="M329.48904 70.43331C334.3793 68.89659 339.33124 67.5636 344.3321 66.43778L385.0 247.08333Z" fill-rule="nonzero"/><path fill="#ff6d01" d="M305.65012 79.78035C313.37122 76.11831 321.33658 72.99517 329.48904 70.43331L385.0 247.08333Z" fill-rule="nonzero"/><path fill="#34a853" d="M283.32855 92.326706C290.47064 87.63452 297.929 83.44238 305.65012 79.78035L385.0 247.08333Z" fill-rule="nonzero"/><path fill="#fbbc04" d="M238.42302 133.93793C250.979 117.67197 266.1549 103.6094 283.32855 92.326706L385.0 247.08333Z" fill-rule="nonzero"/><path fill="#ea4335" d="M207.9701 192.7961C214.4991 171.50508 224.81526 151.56642 238.42302 133.93793L385.0 247.08333Z" fill-rule="nonzero"/><path fill="#4285f4" d="M385.0 61.916668C464.93585 61.916668 535.8479 113.21273 560.86487 189.13301C585.88184 265.0533 559.35547 348.4569 495.0784 395.9774C430.80133 443.49786 343.2857 444.40628 278.03604 398.23032C212.7864 352.05432 184.53447 269.21933 207.9701 192.7961L385.0 247.08333Z" fill-rule="nonzero"/><path fill="#1a1a1a" d="M23.671875 72.916664L23.671875 64.322914L26.640625 64.322914Q27.640625 64.322914 28.171875 64.447914Q28.90625 64.61979 29.421875 65.05729Q30.109375 65.635414 30.4375 66.541664Q30.78125 67.43229 30.78125 68.572914Q30.78125 69.55729 30.546875 70.30729Q30.328125 71.05729 29.96875 71.55729Q29.609375 72.05729 29.171875 72.33854Q28.75 72.61979 28.15625 72.77604Q27.5625 72.916664 26.78125 72.916664L23.671875 72.916664ZM24.8125 71.90104L26.640625 71.90104Q27.5 71.90104 27.984375 71.74479Q28.46875 71.58854 28.75 71.291664Q29.15625 70.90104 29.375 70.21354Q29.609375 69.52604 29.609375 68.55729Q29.609375 67.21354 29.15625 66.49479Q28.71875 65.760414 28.09375 65.510414Q27.625 65.33854 26.625 65.33854L24.8125 65.33854L24.8125 71.90104ZM32.671875 72.916664L32.671875 64.322914L35.640625 64.322914Q36.640625 64.322914 37.171875 64.447914Q37.90625 64.61979 38.421875 65.05729Q39.109375 65.635414 39.4375 66.541664Q39.78125 67.43229 39.78125 68.572914Q39.78125 69.55729 39.546875 70.30729Q39.328125 71.05729 38.96875 71.55729Q38.609375 72.05729 38.171875 72.33854Q37.75 72.61979 37.15625 72.77604Q36.5625 72.916664 35.78125 72.916664L32.671875 72.916664ZM33.8125 71.90104L35.640625 71.90104Q36.5 71.90104 36.984375 71.74479Q37.46875 71.58854 37.75 71.291664Q38.15625 70.90104 38.375 70.21354Q38.609375 69.52604 38.609375 68.55729Q38.609375 67.21354 38.15625 66.49479Q37.71875 65.760414 37.09375 65.510414Q36.625 65.33854 35.625 65.33854L33.8125 65.33854L33.8125 71.90104ZM41.15625 69.80729Q41.15625 68.072914 42.109375 67.24479Q42.90625 66.55729 44.0625 66.55729Q45.34375 66.55729 46.15625 67.40104Q46.984375 68.229164 46.984375 69.71354Q46.984375 70.916664 46.625 71.604164Q46.265625 72.291664 45.5625 72.68229Q44.875 73.05729 44.0625 73.05729Q42.765625 73.05729 41.953125 72.229164Q41.15625 71.385414 41.15625 69.80729ZM42.234375 69.80729Q42.234375 70.99479 42.75 71.58854Q43.28125 72.18229 44.0625 72.18229Q44.859375 72.18229 45.375 71.58854Q45.890625 70.99479 45.890625 69.77604Q45.890625 68.61979 45.359375 68.02604Q44.84375 67.43229 44.0625 67.43229Q43.28125 67.43229 42.75 68.02604Q42.234375 68.604164 42.234375 69.80729ZM48.296875 70.15104L49.359375 70.05729Q49.4375 70.71354 49.71875 71.11979Q50.0 71.52604 50.578125 71.791664Q51.171875 72.041664 51.90625 72.041664Q52.546875 72.041664 53.046875 71.854164Q53.546875 71.65104 53.78125 71.322914Q54.03125 70.979164 54.03125 70.58854Q54.03125 70.18229 53.796875 69.885414Q53.5625 69.572914 53.03125 69.36979Q52.671875 69.229164 51.484375 68.947914Q50.3125 68.666664 49.84375 68.416664Q49.21875 68.08854 48.921875 67.61979Q48.625 67.135414 48.625 66.541664Q48.625 65.90104 48.984375 65.33854Q49.359375 64.760414 50.0625 64.479164Q50.78125 64.18229 51.640625 64.18229Q52.59375 64.18229 53.328125 64.49479Q54.0625 64.791664 54.453125 65.40104Q54.84375 65.99479 54.875 66.74479L53.78125 66.822914Q53.6875 66.010414 53.171875 65.604164Q52.671875 65.18229 51.6875 65.18229Q50.65625 65.18229 50.1875 65.55729Q49.71875 65.93229 49.71875 66.46354Q49.71875 66.93229 50.046875 67.229164Q50.375 67.52604 51.75 67.83854Q53.140625 68.15104 53.65625 68.385414Q54.40625 68.74479 54.765625 69.27604Q55.125 69.791664 55.125 70.49479Q55.125 71.18229 54.734375 71.791664Q54.34375 72.385414 53.609375 72.729164Q52.875 73.05729 51.953125 73.05729Q50.78125 73.05729 49.984375 72.729164Q49.203125 72.385414 48.75 71.697914Q48.3125 71.010414 48.296875 70.15104ZM56.125 70.33854L56.125 69.27604L59.375 69.27604L59.375 70.33854L56.125 70.33854ZM64.703125 69.541664L64.703125 68.541664L68.328125 68.52604L68.328125 71.71354Q67.5 72.385414 66.609375 72.729164Q65.71875 73.05729 64.78125 73.05729Q63.515625 73.05729 62.46875 72.52604Q61.4375 71.979164 60.90625 70.96354Q60.390625 69.93229 60.390625 68.666664Q60.390625 67.40104 60.90625 66.322914Q61.4375 65.229164 62.421875 64.71354Q63.40625 64.18229 64.6875 64.18229Q65.625 64.18229 66.375 64.479164Q67.125 64.77604 67.546875 65.322914Q67.984375 65.854164 68.203125 66.729164L67.1875 67.010414Q66.984375 66.354164 66.6875 65.979164Q66.40625 65.604164 65.875 65.385414Q65.34375 65.15104 64.703125 65.15104Q63.921875 65.15104 63.34375 65.385414Q62.78125 65.61979 62.421875 66.010414Q62.078125 66.40104 61.890625 66.86979Q61.5625 67.666664 61.5625 68.58854Q61.5625 69.74479 61.953125 70.52604Q62.359375 71.291664 63.109375 71.666664Q63.859375 72.041664 64.71875 72.041664Q65.453125 72.041664 66.15625 71.760414Q66.859375 71.46354 67.21875 71.15104L67.21875 69.541664L64.703125 69.541664ZM73.625 72.916664L73.625 71.99479Q72.890625 73.05729 71.640625 73.05729Q71.09375 73.05729 70.609375 72.854164Q70.140625 72.635414 69.90625 72.322914Q69.671875 71.99479 69.578125 71.52604Q69.515625 71.229164 69.515625 70.541664L69.515625 66.697914L70.578125 66.697914L70.578125 70.15104Q70.578125 70.96354 70.640625 71.260414Q70.734375 71.666664 71.046875 71.916664Q71.375 72.15104 71.859375 72.15104Q72.328125 72.15104 72.734375 71.916664Q73.15625 71.666664 73.328125 71.24479Q73.515625 70.822914 73.515625 70.02604L73.515625 66.697914L74.5625 66.697914L74.5625 72.916664L73.625 72.916664ZM80.609375 72.15104Q80.015625 72.65104 79.46875 72.854164Q78.9375 73.05729 78.3125 73.05729Q77.28125 73.05729 76.734375 72.55729Q76.1875 72.05729 76.1875 71.27604Q76.1875 70.822914 76.390625 70.447914Q76.59375 70.05729 76.9375 69.83854Q77.28125 69.604164 77.703125 69.49479Q78.0 69.40104 78.640625 69.322914Q79.90625 69.18229 80.515625 68.96354Q80.515625 68.74479 80.515625 68.697914Q80.515625 68.041664 80.21875 67.77604Q79.8125 67.43229 79.015625 67.43229Q78.28125 67.43229 77.921875 67.697914Q77.5625 67.947914 77.390625 68.604164L76.359375 68.46354Q76.5 67.80729 76.828125 67.40104Q77.15625 66.99479 77.765625 66.77604Q78.375 66.55729 79.171875 66.55729Q79.96875 66.55729 80.46875 66.74479Q80.96875 66.93229 81.203125 67.21354Q81.4375 67.49479 81.53125 67.93229Q81.578125 68.197914 81.578125 68.90104L81.578125 70.30729Q81.578125 71.77604 81.640625 72.166664Q81.71875 72.55729 81.921875 72.916664L80.8125 72.916664Q80.65625 72.58854 80.609375 72.15104ZM80.515625 69.791664Q79.9375 70.02604 78.796875 70.197914Q78.140625 70.291664 77.875 70.416664Q77.609375 70.52604 77.453125 70.74479Q77.3125 70.96354 77.3125 71.24479Q77.3125 71.666664 77.625 71.947914Q77.953125 72.229164 78.5625 72.229164Q79.171875 72.229164 79.640625 71.96354Q80.125 71.697914 80.34375 71.229164Q80.515625 70.86979 80.515625 70.18229L80.515625 69.791664ZM83.53125 72.916664L83.53125 66.697914L84.484375 66.697914L84.484375 67.635414Q84.84375 66.979164 85.140625 66.77604Q85.453125 66.55729 85.828125 66.55729Q86.359375 66.55729 86.90625 66.885414L86.546875 67.86979Q86.15625 67.635414 85.78125 67.635414Q85.421875 67.635414 85.140625 67.854164Q84.875 68.05729 84.765625 68.43229Q84.578125 68.99479 84.578125 69.65104L84.578125 72.916664L83.53125 72.916664ZM91.578125 72.916664L91.578125 72.135414Q90.984375 73.05729 89.84375 73.05729Q89.09375 73.05729 88.46875 72.65104Q87.84375 72.229164 87.5 71.49479Q87.15625 70.760414 87.15625 69.80729Q87.15625 68.885414 87.46875 68.11979Q87.78125 67.354164 88.40625 66.96354Q89.03125 66.55729 89.796875 66.55729Q90.359375 66.55729 90.796875 66.791664Q91.234375 67.02604 91.515625 67.40104L91.515625 64.322914L92.5625 64.322914L92.5625 72.916664L91.578125 72.916664ZM88.25 69.80729Q88.25 71.010414 88.75 71.604164Q89.25 72.18229 89.9375 72.18229Q90.625 72.18229 91.109375 71.61979Q91.59375 71.05729 91.59375 69.90104Q91.59375 68.61979 91.09375 68.02604Q90.609375 67.43229 89.890625 67.43229Q89.1875 67.43229 88.71875 68.010414Q88.25 68.572914 88.25 69.80729Z" fill-rule="nonzero"/><path fill="#9e9e9e" d="M27.21875 89.916664L26.171875 89.916664L26.171875 83.197914Q25.78125 83.55729 25.15625 83.93229Q24.546875 84.291664 24.0625 84.46354L24.0625 83.447914Q24.9375 83.02604 25.59375 82.447914Q26.265625 81.854164 26.546875 81.291664L27.21875 81.291664L27.21875 89.916664ZM30.84375 89.916664L30.84375 88.71354L32.046875 88.71354L32.046875 89.916664L30.84375 89.916664ZM33.25 87.65104L34.3125 87.510414Q34.484375 88.40104 34.921875 88.80729Q35.359375 89.197914 35.984375 89.197914Q36.734375 89.197914 37.25 88.68229Q37.765625 88.166664 37.765625 87.40104Q37.765625 86.68229 37.28125 86.21354Q36.8125 85.729164 36.078125 85.729164Q35.78125 85.729164 35.328125 85.854164L35.453125 84.916664Q35.5625 84.93229 35.625 84.93229Q36.296875 84.93229 36.828125 84.58854Q37.375 84.229164 37.375 83.49479Q37.375 82.916664 36.984375 82.541664Q36.59375 82.15104 35.96875 82.15104Q35.359375 82.15104 34.9375 82.541664Q34.53125 82.93229 34.421875 83.697914L33.359375 83.510414Q33.546875 82.46354 34.234375 81.885414Q34.921875 81.291664 35.9375 81.291664Q36.640625 81.291664 37.234375 81.604164Q37.828125 81.90104 38.140625 82.416664Q38.453125 82.93229 38.453125 83.52604Q38.453125 84.072914 38.15625 84.541664Q37.859375 84.99479 37.28125 85.260414Q38.03125 85.43229 38.453125 85.99479Q38.875 86.541664 38.875 87.385414Q38.875 88.510414 38.046875 89.291664Q37.234375 90.072914 35.984375 90.072914Q34.859375 90.072914 34.109375 89.40104Q33.359375 88.71354 33.25 87.65104ZM40.453125 83.385414Q40.453125 82.46354 40.90625 81.822914Q41.375 81.18229 42.25 81.18229Q43.0625 81.18229 43.59375 81.760414Q44.125 82.33854 44.125 83.447914Q44.125 84.541664 43.578125 85.135414Q43.046875 85.71354 42.265625 85.71354Q41.484375 85.71354 40.96875 85.135414Q40.453125 84.55729 40.453125 83.385414ZM42.28125 81.90104Q41.890625 81.90104 41.625 82.24479Q41.375 82.58854 41.375 83.49479Q41.375 84.322914 41.625 84.666664Q41.890625 84.99479 42.28125 84.99479Q42.6875 84.99479 42.9375 84.65104Q43.203125 84.30729 43.203125 83.416664Q43.203125 82.572914 42.9375 82.24479Q42.671875 81.90104 42.28125 81.90104ZM42.28125 90.229164L46.984375 81.18229L47.84375 81.18229L43.15625 90.229164L42.28125 90.229164ZM46.0 87.90104Q46.0 86.979164 46.453125 86.33854Q46.921875 85.697914 47.8125 85.697914Q48.625 85.697914 49.15625 86.27604Q49.6875 86.83854 49.6875 87.96354Q49.6875 89.05729 49.140625 89.65104Q48.609375 90.229164 47.8125 90.229164Q47.046875 90.229164 46.515625 89.65104Q46.0 89.072914 46.0 87.90104ZM47.84375 86.416664Q47.4375 86.416664 47.171875 86.760414Q46.921875 87.104164 46.921875 88.010414Q46.921875 88.822914 47.1875 89.166664Q47.453125 89.510414 47.84375 89.510414Q48.234375 89.510414 48.5 89.166664Q48.765625 88.822914 48.765625 87.916664Q48.765625 87.08854 48.5 86.760414Q48.234375 86.416664 47.84375 86.416664Z" fill-rule="nonzero"/><path stroke="#757575" stroke-width="1.0" stroke-linecap="butt" d="M22.75 77.416664L193.83333 77.416664L353.5219 74.01435" fill-rule="nonzero"/><path fill="#9e9e9e" d="M355.5219 74.01435C355.5219 72.90978 354.6265 72.01435 353.5219 72.01435C352.41736 72.01435 351.5219 72.90978 351.5219 74.01435C351.5219 75.11892 352.41736 76.01435 353.5219 76.01435C354.6265 76.01435 355.5219 75.11892 355.5219 74.01435" fill-rule="nonzero"/><path fill="#1a1a1a" d="M22.734375 103.916664L26.03125 95.322914L27.25 95.322914L30.765625 103.916664L29.484375 103.916664L28.46875 101.30729L24.890625 101.30729L23.9375 103.916664L22.734375 103.916664ZM25.21875 100.385414L28.125 100.385414L27.234375 98.010414Q26.8125 96.93229 26.625 96.229164Q26.453125 97.05729 26.15625 97.86979L25.21875 100.385414ZM30.546875 103.916664L30.546875 95.322914L31.609375 95.322914L31.609375 100.229164L34.09375 97.697914L35.46875 97.697914L33.078125 99.99479L35.703125 103.916664L34.40625 103.916664L32.34375 100.729164L31.609375 101.447914L31.609375 103.916664L30.546875 103.916664ZM40.609375 103.15104Q40.015625 103.65104 39.46875 103.854164Q38.9375 104.05729 38.3125 104.05729Q37.28125 104.05729 36.734375 103.55729Q36.1875 103.05729 36.1875 102.27604Q36.1875 101.822914 36.390625 101.447914Q36.59375 101.05729 36.9375 100.83854Q37.28125 100.604164 37.703125 100.49479Q38.0 100.40104 38.640625 100.322914Q39.90625 100.18229 40.515625 99.96354Q40.515625 99.74479 40.515625 99.697914Q40.515625 99.041664 40.21875 98.77604Q39.8125 98.43229 39.015625 98.43229Q38.28125 98.43229 37.921875 98.697914Q37.5625 98.947914 37.390625 99.604164L36.359375 99.46354Q36.5 98.80729 36.828125 98.40104Q37.15625 97.99479 37.765625 97.77604Q38.375 97.55729 39.171875 97.55729Q39.96875 97.55729 40.46875 97.74479Q40.96875 97.93229 41.203125 98.21354Q41.4375 98.49479 41.53125 98.93229Q41.578125 99.197914 41.578125 99.90104L41.578125 101.30729Q41.578125 102.77604 41.640625 103.166664Q41.71875 103.55729 41.921875 103.916664L40.8125 103.916664Q40.65625 103.58854 40.609375 103.15104ZM40.515625 100.791664Q39.9375 101.02604 38.796875 101.197914Q38.140625 101.291664 37.875 101.416664Q37.609375 101.52604 37.453125 101.74479Q37.3125 101.96354 37.3125 102.24479Q37.3125 102.666664 37.625 102.947914Q37.953125 103.229164 38.5625 103.229164Q39.171875 103.229164 39.640625 102.96354Q40.125 102.697914 40.34375 102.229164Q40.515625 101.86979 40.515625 101.18229L40.515625 100.791664ZM43.546875 103.916664L43.546875 97.697914L44.484375 97.697914L44.484375 98.572914Q44.78125 98.104164 45.265625 97.83854Q45.75 97.55729 46.375 97.55729Q47.0625 97.55729 47.5 97.83854Q47.953125 98.11979 48.125 98.635414Q48.875 97.55729 50.046875 97.55729Q50.984375 97.55729 51.46875 98.072914Q51.96875 98.572914 51.96875 99.65104L51.96875 103.916664L50.921875 103.916664L50.921875 99.99479Q50.921875 99.36979 50.8125 99.08854Q50.71875 98.80729 50.453125 98.635414Q50.1875 98.46354 49.8125 98.46354Q49.15625 98.46354 48.71875 98.90104Q48.296875 99.33854 48.296875 100.30729L48.296875 103.916664L47.234375 103.916664L47.234375 99.86979Q47.234375 99.166664 46.96875 98.822914Q46.71875 98.46354 46.140625 98.46354Q45.6875 98.46354 45.3125 98.697914Q44.9375 98.93229 44.765625 99.385414Q44.59375 99.83854 44.59375 100.68229L44.59375 103.916664L43.546875 103.916664ZM58.609375 103.15104Q58.015625 103.65104 57.46875 103.854164Q56.9375 104.05729 56.3125 104.05729Q55.28125 104.05729 54.734375 103.55729Q54.1875 103.05729 54.1875 102.27604Q54.1875 101.822914 54.390625 101.447914Q54.59375 101.05729 54.9375 100.83854Q55.28125 100.604164 55.703125 100.49479Q56.0 100.40104 56.640625 100.322914Q57.90625 100.18229 58.515625 99.96354Q58.515625 99.74479 58.515625 99.697914Q58.515625 99.041664 58.21875 98.77604Q57.8125 98.43229 57.015625 98.43229Q56.28125 98.43229 55.921875 98.697914Q55.5625 98.947914 55.390625 99.604164L54.359375 99.46354Q54.5 98.80729 54.828125 98.40104Q55.15625 97.99479 55.765625 97.77604Q56.375 97.55729 57.171875 97.55729Q57.96875 97.55729 58.46875 97.74479Q58.96875 97.93229 59.203125 98.21354Q59.4375 98.49479 59.53125 98.93229Q59.578125 99.197914 59.578125 99.90104L59.578125 101.30729Q59.578125 102.77604 59.640625 103.166664Q59.71875 103.55729 59.921875 103.916664L58.8125 103.916664Q58.65625 103.58854 58.609375 103.15104ZM58.515625 100.791664Q57.9375 101.02604 56.796875 101.197914Q56.140625 101.291664 55.875 101.416664Q55.609375 101.52604 55.453125 101.74479Q55.3125 101.96354 55.3125 102.24479Q55.3125 102.666664 55.625 102.947914Q55.953125 103.229164 56.5625 103.229164Q57.171875 103.229164 57.640625 102.96354Q58.125 102.697914 58.34375 102.229164Q58.515625 101.86979 58.515625 101.18229L58.515625 100.791664ZM61.546875 96.541664L61.546875 95.322914L62.609375 95.322914L62.609375 96.541664L61.546875 96.541664ZM61.546875 103.916664L61.546875 97.697914L62.609375 97.697914L62.609375 103.916664L61.546875 103.916664Z" fill-rule="nonzero"/><path fill="#9e9e9e" d="M28.796875 119.90104L28.796875 120.916664L23.109375 120.916664Q23.109375 120.541664 23.234375 120.18229Q23.453125 119.604164 23.921875 119.041664Q24.40625 118.479164 25.3125 117.74479Q26.71875 116.58854 27.203125 115.916664Q27.703125 115.24479 27.703125 114.65104Q27.703125 114.02604 27.25 113.604164Q26.796875 113.166664 26.078125 113.166664Q25.3125 113.166664 24.859375 113.61979Q24.40625 114.072914 24.390625 114.885414L23.3125 114.77604Q23.421875 113.55729 24.140625 112.93229Q24.875 112.291664 26.109375 112.291664Q27.34375 112.291664 28.0625 112.979164Q28.78125 113.666664 28.78125 114.68229Q28.78125 115.197914 28.5625 115.697914Q28.359375 116.18229 27.859375 116.74479Q27.375 117.291664 26.25 118.24479Q25.296875 119.041664 25.015625 119.33854Q24.75 119.61979 24.578125 119.90104L28.796875 119.90104ZM30.84375 120.916664L30.84375 119.71354L32.046875 119.71354L32.046875 120.916664L30.84375 120.916664ZM38.796875 119.90104L38.796875 120.916664L33.109375 120.916664Q33.109375 120.541664 33.234375 120.18229Q33.453125 119.604164 33.921875 119.041664Q34.40625 118.479164 35.3125 117.74479Q36.71875 116.58854 37.203125 115.916664Q37.703125 115.24479 37.703125 114.65104Q37.703125 114.02604 37.25 113.604164Q36.796875 113.166664 36.078125 113.166664Q35.3125 113.166664 34.859375 113.61979Q34.40625 114.072914 34.390625 114.885414L33.3125 114.77604Q33.421875 113.55729 34.140625 112.93229Q34.875 112.291664 36.109375 112.291664Q37.34375 112.291664 38.0625 112.979164Q38.78125 113.666664 38.78125 114.68229Q38.78125 115.197914 38.5625 115.697914Q38.359375 116.18229 37.859375 116.74479Q37.375 117.291664 36.25 118.24479Q35.296875 119.041664 35.015625 119.33854Q34.75 119.61979 34.578125 119.90104L38.796875 119.90104ZM40.453125 114.385414Q40.453125 113.46354 40.90625 112.822914Q41.375 112.18229 42.25 112.18229Q43.0625 112.18229 43.59375 112.760414Q44.125 113.33854 44.125 114.447914Q44.125 115.541664 43.578125 116.135414Q43.046875 116.71354 42.265625 116.71354Q41.484375 116.71354 40.96875 116.135414Q40.453125 115.55729 40.453125 114.385414ZM42.28125 112.90104Q41.890625 112.90104 41.625 113.24479Q41.375 113.58854 41.375 114.49479Q41.375 115.322914 41.625 115.666664Q41.890625 115.99479 42.28125 115.99479Q42.6875 115.99479 42.9375 115.65104Q43.203125 115.30729 43.203125 114.416664Q43.203125 113.572914 42.9375 113.24479Q42.671875 112.90104 42.28125 112.90104ZM42.28125 121.229164L46.984375 112.18229L47.84375 112.18229L43.15625 121.229164L42.28125 121.229164ZM46.0 118.90104Q46.0 117.979164 46.453125 117.33854Q46.921875 116.697914 47.8125 116.697914Q48.625 116.697914 49.15625 117.27604Q49.6875 117.83854 49.6875 118.96354Q49.6875 120.05729 49.140625 120.65104Q48.609375 121.229164 47.8125 121.229164Q47.046875 121.229164 46.515625 120.65104Q46.0 120.072914 46.0 118.90104ZM47.84375 117.416664Q47.4375 117.416664 47.171875 117.760414Q46.921875 118.104164 46.921875 119.010414Q46.921875 119.822914 47.1875 120.166664Q47.453125 120.510414 47.84375 120.510414Q48.234375 120.510414 48.5 120.166664Q48.765625 119.822914 48.765625 118.916664Q48.765625 118.08854 48.5 117.760414Q48.234375 117.416664 47.84375 117.416664Z" fill-rule="nonzero"/><path stroke="#757575" stroke-width="1.0" stroke-linecap="butt" d="M22.75 108.416664L193.83333 108.416664L320.78745 83.31371" fill-rule="nonzero"/><path fill="#9e9e9e" d="M322.78745 83.31371C322.78745 82.209145 321.892 81.31371 320.78745 81.31371C319.68286 81.31371 318.78745 82.209145 318.78745 83.31371C318.78745 84.41828 319.68286 85.31371 320.78745 85.31371C321.892 85.31371 322.78745 84.41828 322.78745 83.31371" fill-rule="nonzero"/><path fill="#1a1a1a" d="M23.296875 132.15105L24.359375 132.0573Q24.4375 132.71355 24.71875 133.1198Q25.0 133.52605 25.578125 133.79167Q26.171875 134.04167 26.90625 134.04167Q27.546875 134.04167 28.046875 133.85417Q28.546875 133.65105 28.78125 133.32292Q29.03125 132.97917 29.03125 132.58855Q29.03125 132.1823 28.796875 131.88542Q28.5625 131.57292 28.03125 131.3698Q27.671875 131.22917 26.484375 130.94792Q25.3125 130.66667 24.84375 130.41667Q24.21875 130.08855 23.921875 129.6198Q23.625 129.13542 23.625 128.54167Q23.625 127.90105 23.984375 127.33855Q24.359375 126.76042 25.0625 126.47917Q25.78125 126.1823 26.640625 126.1823Q27.59375 126.1823 28.328125 126.4948Q29.0625 126.79167 29.453125 127.40105Q29.84375 127.9948 29.875 128.7448L28.78125 128.82292Q28.6875 128.01042 28.171875 127.60417Q27.671875 127.1823 26.6875 127.1823Q25.65625 127.1823 25.1875 127.5573Q24.71875 127.9323 24.71875 128.46355Q24.71875 128.9323 25.046875 129.22917Q25.375 129.52605 26.75 129.83855Q28.140625 130.15105 28.65625 130.38542Q29.40625 130.7448 29.765625 131.27605Q30.125 131.79167 30.125 132.4948Q30.125 133.1823 29.734375 133.79167Q29.34375 134.38542 28.609375 134.72917Q27.875 135.0573 26.953125 135.0573Q25.78125 135.0573 24.984375 134.72917Q24.203125 134.38542 23.75 133.69792Q23.3125 133.01042 23.296875 132.15105ZM35.625 134.91667L35.625 133.9948Q34.890625 135.0573 33.640625 135.0573Q33.09375 135.0573 32.609375 134.85417Q32.140625 134.63542 31.90625 134.32292Q31.671875 133.9948 31.578125 133.52605Q31.515625 133.22917 31.515625 132.54167L31.515625 128.69792L32.578125 128.69792L32.578125 132.15105Q32.578125 132.96355 32.640625 133.26042Q32.734375 133.66667 33.046875 133.91667Q33.375 134.15105 33.859375 134.15105Q34.328125 134.15105 34.734375 133.91667Q35.15625 133.66667 35.328125 133.2448Q35.515625 132.82292 35.515625 132.02605L35.515625 128.69792L36.5625 128.69792L36.5625 134.91667L35.625 134.91667ZM42.609375 132.63542L43.640625 132.77605Q43.46875 133.83855 42.765625 134.44792Q42.0625 135.0573 41.046875 135.0573Q39.765625 135.0573 38.984375 134.22917Q38.21875 133.38542 38.21875 131.82292Q38.21875 130.82292 38.546875 130.07292Q38.890625 129.3073 39.5625 128.9323Q40.25 128.5573 41.0625 128.5573Q42.0625 128.5573 42.703125 129.07292Q43.359375 129.57292 43.546875 130.52605L42.515625 130.6823Q42.375 130.0573 42.0 129.7448Q41.625 129.41667 41.09375 129.41667Q40.296875 129.41667 39.796875 129.9948Q39.296875 130.5573 39.296875 131.79167Q39.296875 133.0573 39.78125 133.6198Q40.265625 134.1823 41.03125 134.1823Q41.65625 134.1823 42.0625 133.8073Q42.484375 133.4323 42.609375 132.63542ZM48.625 134.91667L48.625 133.9948Q47.890625 135.0573 46.640625 135.0573Q46.09375 135.0573 45.609375 134.85417Q45.140625 134.63542 44.90625 134.32292Q44.671875 133.9948 44.578125 133.52605Q44.515625 133.22917 44.515625 132.54167L44.515625 128.69792L45.578125 128.69792L45.578125 132.15105Q45.578125 132.96355 45.640625 133.26042Q45.734375 133.66667 46.046875 133.91667Q46.375 134.15105 46.859375 134.15105Q47.328125 134.15105 47.734375 133.91667Q48.15625 133.66667 48.328125 133.2448Q48.515625 132.82292 48.515625 132.02605L48.515625 128.69792L49.5625 128.69792L49.5625 134.91667L48.625 134.91667ZM51.53125 134.91667L51.53125 128.69792L52.484375 128.69792L52.484375 129.63542Q52.84375 128.97917 53.140625 128.77605Q53.453125 128.5573 53.828125 128.5573Q54.359375 128.5573 54.90625 128.88542L54.546875 129.8698Q54.15625 129.63542 53.78125 129.63542Q53.421875 129.63542 53.140625 129.85417Q52.875 130.0573 52.765625 130.4323Q52.578125 130.9948 52.578125 131.65105L52.578125 134.91667L51.53125 134.91667ZM55.546875 127.54167L55.546875 126.32292L56.609375 126.32292L56.609375 127.54167L55.546875 127.54167ZM55.546875 134.91667L55.546875 128.69792L56.609375 128.69792L56.609375 134.91667L55.546875 134.91667Z" fill-rule="nonzero"/><path fill="#9e9e9e" d="M28.796875 150.90105L28.796875 151.91667L23.109375 151.91667Q23.109375 151.54167 23.234375 151.1823Q23.453125 150.60417 23.921875 150.04167Q24.40625 149.47917 25.3125 148.7448Q26.71875 147.58855 27.203125 146.91667Q27.703125 146.2448 27.703125 145.65105Q27.703125 145.02605 27.25 144.60417Q26.796875 144.16667 26.078125 144.16667Q25.3125 144.16667 24.859375 144.6198Q24.40625 145.07292 24.390625 145.88542L23.3125 145.77605Q23.421875 144.5573 24.140625 143.9323Q24.875 143.29167 26.109375 143.29167Q27.34375 143.29167 28.0625 143.97917Q28.78125 144.66667 28.78125 145.6823Q28.78125 146.19792 28.5625 146.69792Q28.359375 147.1823 27.859375 147.7448Q27.375 148.29167 26.25 149.2448Q25.296875 150.04167 25.015625 150.33855Q24.75 150.6198 24.578125 150.90105L28.796875 150.90105ZM30.84375 151.91667L30.84375 150.71355L32.046875 150.71355L32.046875 151.91667L30.84375 151.91667ZM38.796875 150.90105L38.796875 151.91667L33.109375 151.91667Q33.109375 151.54167 33.234375 151.1823Q33.453125 150.60417 33.921875 150.04167Q34.40625 149.47917 35.3125 148.7448Q36.71875 147.58855 37.203125 146.91667Q37.703125 146.2448 37.703125 145.65105Q37.703125 145.02605 37.25 144.60417Q36.796875 144.16667 36.078125 144.16667Q35.3125 144.16667 34.859375 144.6198Q34.40625 145.07292 34.390625 145.88542L33.3125 145.77605Q33.421875 144.5573 34.140625 143.9323Q34.875 143.29167 36.109375 143.29167Q37.34375 143.29167 38.0625 143.97917Q38.78125 144.66667 38.78125 145.6823Q38.78125 146.19792 38.5625 146.69792Q38.359375 147.1823 37.859375 147.7448Q37.375 148.29167 36.25 149.2448Q35.296875 150.04167 35.015625 150.33855Q34.75 150.6198 34.578125 150.90105L38.796875 150.90105ZM40.453125 145.38542Q40.453125 144.46355 40.90625 143.82292Q41.375 143.1823 42.25 143.1823Q43.0625 143.1823 43.59375 143.76042Q44.125 144.33855 44.125 145.44792Q44.125 146.54167 43.578125 147.13542Q43.046875 147.71355 42.265625 147.71355Q41.484375 147.71355 40.96875 147.13542Q40.453125 146.5573 40.453125 145.38542ZM42.28125 143.90105Q41.890625 143.90105 41.625 144.2448Q41.375 144.58855 41.375 145.4948Q41.375 146.32292 41.625 146.66667Q41.890625 146.9948 42.28125 146.9948Q42.6875 146.9948 42.9375 146.65105Q43.203125 146.3073 43.203125 145.41667Q43.203125 144.57292 42.9375 144.2448Q42.671875 143.90105 42.28125 143.90105ZM42.28125 152.22917L46.984375 143.1823L47.84375 143.1823L43.15625 152.22917L42.28125 152.22917ZM46.0 149.90105Q46.0 148.97917 46.453125 148.33855Q46.921875 147.69792 47.8125 147.69792Q48.625 147.69792 49.15625 148.27605Q49.6875 148.83855 49.6875 149.96355Q49.6875 151.0573 49.140625 151.65105Q48.609375 152.22917 47.8125 152.22917Q47.046875 152.22917 46.515625 151.65105Q46.0 151.07292 46.0 149.90105ZM47.84375 148.41667Q47.4375 148.41667 47.171875 148.76042Q46.921875 149.10417 46.921875 150.01042Q46.921875 150.82292 47.1875 151.16667Q47.453125 151.51042 47.84375 151.51042Q48.234375 151.51042 48.5 151.16667Q48.765625 150.82292 48.765625 149.91667Q48.765625 149.08855 48.5 148.76042Q48.234375 148.41667 47.84375 148.41667Z" fill-rule="nonzero"/><path stroke="#757575" stroke-width="1.0" stroke-linecap="butt" d="M22.75 139.41667L193.83333 139.41667L298.8086 93.73802" fill-rule="nonzero"/><path fill="#9e9e9e" d="M300.8086 93.73802C300.8086 92.63345 299.91318 91.73802 298.8086 91.73802C297.70404 91.73802 296.8086 92.63345 296.8086 93.73802C296.8086 94.8426 297.70404 95.73802 298.8086 95.73802C299.91318 95.73802 300.8086 94.8426 300.8086 93.73802" fill-rule="nonzero"/><path fill="#1a1a1a" d="M22.734375 165.91667L26.03125 157.32292L27.25 157.32292L30.765625 165.91667L29.484375 165.91667L28.46875 163.3073L24.890625 163.3073L23.9375 165.91667L22.734375 165.91667ZM25.21875 162.38542L28.125 162.38542L27.234375 160.01042Q26.8125 158.9323 26.625 158.22917Q26.453125 159.0573 26.15625 159.8698L25.21875 162.38542ZM30.546875 165.91667L30.546875 159.69792L31.484375 159.69792L31.484375 160.57292Q31.78125 160.10417 32.265625 159.83855Q32.75 159.5573 33.375 159.5573Q34.0625 159.5573 34.5 159.83855Q34.953125 160.1198 35.125 160.63542Q35.875 159.5573 37.046875 159.5573Q37.984375 159.5573 38.46875 160.07292Q38.96875 160.57292 38.96875 161.65105L38.96875 165.91667L37.921875 165.91667L37.921875 161.9948Q37.921875 161.3698 37.8125 161.08855Q37.71875 160.8073 37.453125 160.63542Q37.1875 160.46355 36.8125 160.46355Q36.15625 160.46355 35.71875 160.90105Q35.296875 161.33855 35.296875 162.3073L35.296875 165.91667L34.234375 165.91667L34.234375 161.8698Q34.234375 161.16667 33.96875 160.82292Q33.71875 160.46355 33.140625 160.46355Q32.6875 160.46355 32.3125 160.69792Q31.9375 160.9323 31.765625 161.38542Q31.59375 161.83855 31.59375 162.6823L31.59375 165.91667L30.546875 165.91667ZM45.609375 165.15105Q45.015625 165.65105 44.46875 165.85417Q43.9375 166.0573 43.3125 166.0573Q42.28125 166.0573 41.734375 165.5573Q41.1875 165.0573 41.1875 164.27605Q41.1875 163.82292 41.390625 163.44792Q41.59375 163.0573 41.9375 162.83855Q42.28125 162.60417 42.703125 162.4948Q43.0 162.40105 43.640625 162.32292Q44.90625 162.1823 45.515625 161.96355Q45.515625 161.7448 45.515625 161.69792Q45.515625 161.04167 45.21875 160.77605Q44.8125 160.4323 44.015625 160.4323Q43.28125 160.4323 42.921875 160.69792Q42.5625 160.94792 42.390625 161.60417L41.359375 161.46355Q41.5 160.8073 41.828125 160.40105Q42.15625 159.9948 42.765625 159.77605Q43.375 159.5573 44.171875 159.5573Q44.96875 159.5573 45.46875 159.7448Q45.96875 159.9323 46.203125 160.21355Q46.4375 160.4948 46.53125 160.9323Q46.578125 161.19792 46.578125 161.90105L46.578125 163.3073Q46.578125 164.77605 46.640625 165.16667Q46.71875 165.5573 46.921875 165.91667L45.8125 165.91667Q45.65625 165.58855 45.609375 165.15105ZM45.515625 162.79167Q44.9375 163.02605 43.796875 163.19792Q43.140625 163.29167 42.875 163.41667Q42.609375 163.52605 42.453125 163.7448Q42.3125 163.96355 42.3125 164.2448Q42.3125 164.66667 42.625 164.94792Q42.953125 165.22917 43.5625 165.22917Q44.171875 165.22917 44.640625 164.96355Q45.125 164.69792 45.34375 164.22917Q45.515625 163.8698 45.515625 163.1823L45.515625 162.79167ZM47.984375 165.91667L47.984375 165.0573L51.953125 160.51042Q51.265625 160.54167 50.75 160.54167L48.21875 160.54167L48.21875 159.69792L53.3125 159.69792L53.3125 160.38542L49.9375 164.33855L49.28125 165.0573Q50.0 165.01042 50.609375 165.01042L53.5 165.01042L53.5 165.91667L47.984375 165.91667ZM53.15625 162.8073Q53.15625 161.07292 54.109375 160.2448Q54.90625 159.5573 56.0625 159.5573Q57.34375 159.5573 58.15625 160.40105Q58.984375 161.22917 58.984375 162.71355Q58.984375 163.91667 58.625 164.60417Q58.265625 165.29167 57.5625 165.6823Q56.875 166.0573 56.0625 166.0573Q54.765625 166.0573 53.953125 165.22917Q53.15625 164.38542 53.15625 162.8073ZM54.234375 162.8073Q54.234375 163.9948 54.75 164.58855Q55.28125 165.1823 56.0625 165.1823Q56.859375 165.1823 57.375 164.58855Q57.890625 163.9948 57.890625 162.77605Q57.890625 161.6198 57.359375 161.02605Q56.84375 160.4323 56.0625 160.4323Q55.28125 160.4323 54.75 161.02605Q54.234375 161.60417 54.234375 162.8073ZM60.546875 165.91667L60.546875 159.69792L61.484375 159.69792L61.484375 160.57292Q62.171875 159.5573 63.46875 159.5573Q64.03125 159.5573 64.5 159.76042Q64.984375 159.96355 65.21875 160.29167Q65.453125 160.6198 65.546875 161.0573Q65.59375 161.35417 65.59375 162.08855L65.59375 165.91667L64.546875 165.91667L64.546875 162.13542Q64.546875 161.47917 64.421875 161.16667Q64.296875 160.85417 63.984375 160.66667Q63.671875 160.46355 63.25 160.46355Q62.578125 160.46355 62.078125 160.90105Q61.59375 161.32292 61.59375 162.51042L61.59375 165.91667L60.546875 165.91667ZM76.8125 162.90105L77.9375 163.19792Q77.578125 164.58855 76.65625 165.32292Q75.734375 166.0573 74.390625 166.0573Q73.0 166.0573 72.125 165.4948Q71.25 164.9323 70.796875 163.8698Q70.34375 162.79167 70.34375 161.5573Q70.34375 160.21355 70.859375 159.21355Q71.375 158.21355 72.3125 157.69792Q73.265625 157.1823 74.40625 157.1823Q75.6875 157.1823 76.5625 157.83855Q77.453125 158.4948 77.796875 159.6823L76.671875 159.94792Q76.375 159.01042 75.796875 158.58855Q75.234375 158.15105 74.375 158.15105Q73.390625 158.15105 72.71875 158.63542Q72.0625 159.10417 71.78125 159.90105Q71.515625 160.69792 71.515625 161.5573Q71.515625 162.65105 71.828125 163.46355Q72.15625 164.27605 72.828125 164.6823Q73.5 165.08855 74.296875 165.08855Q75.25 165.08855 75.90625 164.54167Q76.578125 163.9948 76.8125 162.90105ZM79.515625 165.91667L79.515625 157.32292L80.578125 157.32292L80.578125 165.91667L79.515625 165.91667ZM82.15625 162.8073Q82.15625 161.07292 83.109375 160.2448Q83.90625 159.5573 85.0625 159.5573Q86.34375 159.5573 87.15625 160.40105Q87.984375 161.22917 87.984375 162.71355Q87.984375 163.91667 87.625 164.60417Q87.265625 165.29167 86.5625 165.6823Q85.875 166.0573 85.0625 166.0573Q83.765625 166.0573 82.953125 165.22917Q82.15625 164.38542 82.15625 162.8073ZM83.234375 162.8073Q83.234375 163.9948 83.75 164.58855Q84.28125 165.1823 85.0625 165.1823Q85.859375 165.1823 86.375 164.58855Q86.890625 163.9948 86.890625 162.77605Q86.890625 161.6198 86.359375 161.02605Q85.84375 160.4323 85.0625 160.4323Q84.28125 160.4323 83.75 161.02605Q83.234375 161.60417 83.234375 162.8073ZM93.625 165.91667L93.625 164.9948Q92.890625 166.0573 91.640625 166.0573Q91.09375 166.0573 90.609375 165.85417Q90.140625 165.63542 89.90625 165.32292Q89.671875 164.9948 89.578125 164.52605Q89.515625 164.22917 89.515625 163.54167L89.515625 159.69792L90.578125 159.69792L90.578125 163.15105Q90.578125 163.96355 90.640625 164.26042Q90.734375 164.66667 91.046875 164.91667Q91.375 165.15105 91.859375 165.15105Q92.328125 165.15105 92.734375 164.91667Q93.15625 164.66667 93.328125 164.2448Q93.515625 163.82292 93.515625 163.02605L93.515625 159.69792L94.5625 159.69792L94.5625 165.91667L93.625 165.91667ZM100.578125 165.91667L100.578125 165.13542Q99.984375 166.0573 98.84375 166.0573Q98.09375 166.0573 97.46875 165.65105Q96.84375 165.22917 96.5 164.4948Q96.15625 163.76042 96.15625 162.8073Q96.15625 161.88542 96.46875 161.1198Q96.78125 160.35417 97.40625 159.96355Q98.03125 159.5573 98.796875 159.5573Q99.359375 159.5573 99.796875 159.79167Q100.234375 160.02605 100.515625 160.40105L100.515625 157.32292L101.5625 157.32292L101.5625 165.91667L100.578125 165.91667ZM97.25 162.8073Q97.25 164.01042 97.75 164.60417Q98.25 165.1823 98.9375 165.1823Q99.625 165.1823 100.109375 164.6198Q100.59375 164.0573 100.59375 162.90105Q100.59375 161.6198 100.09375 161.02605Q99.609375 160.4323 98.890625 160.4323Q98.1875 160.4323 97.71875 161.01042Q97.25 161.57292 97.25 162.8073ZM103.734375 165.91667L103.734375 157.32292L109.53125 157.32292L109.53125 158.33855L104.875 158.33855L104.875 160.9948L108.90625 160.9948L108.90625 162.01042L104.875 162.01042L104.875 165.91667L103.734375 165.91667ZM110.53125 165.91667L110.53125 159.69792L111.484375 159.69792L111.484375 160.63542Q111.84375 159.97917 112.140625 159.77605Q112.453125 159.5573 112.828125 159.5573Q113.359375 159.5573 113.90625 159.88542L113.546875 160.8698Q113.15625 160.63542 112.78125 160.63542Q112.421875 160.63542 112.140625 160.85417Q111.875 161.0573 111.765625 161.4323Q111.578125 161.9948 111.578125 162.65105L111.578125 165.91667L110.53125 165.91667ZM114.15625 162.8073Q114.15625 161.07292 115.109375 160.2448Q115.90625 159.5573 117.0625 159.5573Q118.34375 159.5573 119.15625 160.40105Q119.984375 161.22917 119.984375 162.71355Q119.984375 163.91667 119.625 164.60417Q119.265625 165.29167 118.5625 165.6823Q117.875 166.0573 117.0625 166.0573Q115.765625 166.0573 114.953125 165.22917Q114.15625 164.38542 114.15625 162.8073ZM115.234375 162.8073Q115.234375 163.9948 115.75 164.58855Q116.28125 165.1823 117.0625 165.1823Q117.859375 165.1823 118.375 164.58855Q118.890625 163.9948 118.890625 162.77605Q118.890625 161.6198 118.359375 161.02605Q117.84375 160.4323 117.0625 160.4323Q116.28125 160.4323 115.75 161.02605Q115.234375 161.60417 115.234375 162.8073ZM121.546875 165.91667L121.546875 159.69792L122.484375 159.69792L122.484375 160.57292Q123.171875 159.5573 124.46875 159.5573Q125.03125 159.5573 125.5 159.76042Q125.984375 159.96355 126.21875 160.29167Q126.453125 160.6198 126.546875 161.0573Q126.59375 161.35417 126.59375 162.08855L126.59375 165.91667L125.546875 165.91667L125.546875 162.13542Q125.546875 161.47917 125.421875 161.16667Q125.296875 160.85417 124.984375 160.66667Q124.671875 160.46355 124.25 160.46355Q123.578125 160.46355 123.078125 160.90105Q122.59375 161.32292 122.59375 162.51042L122.59375 165.91667L121.546875 165.91667ZM130.84375 164.97917L131.0 165.90105Q130.54688 165.9948 130.20312 165.9948Q129.625 165.9948 129.3125 165.82292Q129.0 165.63542 128.85938 165.33855Q128.73438 165.04167 128.73438 164.08855L128.73438 160.51042L127.96875 160.51042L127.96875 159.69792L128.73438 159.69792L128.73438 158.15105L129.78125 157.52605L129.78125 159.69792L130.84375 159.69792L130.84375 160.51042L129.78125 160.51042L129.78125 164.15105Q129.78125 164.60417 129.82812 164.72917Q129.89062 164.85417 130.01562 164.9323Q130.14062 165.01042 130.375 165.01042Q130.5625 165.01042 130.84375 164.97917Z" fill-rule="nonzero"/><path fill="#9e9e9e" d="M23.25 180.66667L24.359375 180.57292Q24.484375 181.38542 24.921875 181.79167Q25.375 182.19792 26.015625 182.19792Q26.765625 182.19792 27.296875 181.6198Q27.828125 181.04167 27.828125 180.10417Q27.828125 179.19792 27.3125 178.6823Q26.8125 178.15105 25.984375 178.15105Q25.484375 178.15105 25.0625 178.38542Q24.65625 178.6198 24.421875 178.97917L23.4375 178.85417L24.265625 174.44792L28.546875 174.44792L28.546875 175.44792L25.109375 175.44792L24.65625 177.76042Q25.421875 177.21355 26.265625 177.21355Q27.390625 177.21355 28.15625 177.9948Q28.9375 178.77605 28.9375 180.01042Q28.9375 181.16667 28.265625 182.02605Q27.4375 183.0573 26.015625 183.0573Q24.84375 183.0573 24.09375 182.40105Q23.359375 181.7448 23.25 180.66667ZM30.84375 182.91667L30.84375 181.71355L32.046875 181.71355L32.046875 182.91667L30.84375 182.91667ZM33.25 180.65105L34.3125 180.51042Q34.484375 181.40105 34.921875 181.8073Q35.359375 182.19792 35.984375 182.19792Q36.734375 182.19792 37.25 181.6823Q37.765625 181.16667 37.765625 180.40105Q37.765625 179.6823 37.28125 179.21355Q36.8125 178.72917 36.078125 178.72917Q35.78125 178.72917 35.328125 178.85417L35.453125 177.91667Q35.5625 177.9323 35.625 177.9323Q36.296875 177.9323 36.828125 177.58855Q37.375 177.22917 37.375 176.4948Q37.375 175.91667 36.984375 175.54167Q36.59375 175.15105 35.96875 175.15105Q35.359375 175.15105 34.9375 175.54167Q34.53125 175.9323 34.421875 176.69792L33.359375 176.51042Q33.546875 175.46355 34.234375 174.88542Q34.921875 174.29167 35.9375 174.29167Q36.640625 174.29167 37.234375 174.60417Q37.828125 174.90105 38.140625 175.41667Q38.453125 175.9323 38.453125 176.52605Q38.453125 177.07292 38.15625 177.54167Q37.859375 177.9948 37.28125 178.26042Q38.03125 178.4323 38.453125 178.9948Q38.875 179.54167 38.875 180.38542Q38.875 181.51042 38.046875 182.29167Q37.234375 183.07292 35.984375 183.07292Q34.859375 183.07292 34.109375 182.40105Q33.359375 181.71355 33.25 180.65105ZM40.453125 176.38542Q40.453125 175.46355 40.90625 174.82292Q41.375 174.1823 42.25 174.1823Q43.0625 174.1823 43.59375 174.76042Q44.125 175.33855 44.125 176.44792Q44.125 177.54167 43.578125 178.13542Q43.046875 178.71355 42.265625 178.71355Q41.484375 178.71355 40.96875 178.13542Q40.453125 177.5573 40.453125 176.38542ZM42.28125 174.90105Q41.890625 174.90105 41.625 175.2448Q41.375 175.58855 41.375 176.4948Q41.375 177.32292 41.625 177.66667Q41.890625 177.9948 42.28125 177.9948Q42.6875 177.9948 42.9375 177.65105Q43.203125 177.3073 43.203125 176.41667Q43.203125 175.57292 42.9375 175.2448Q42.671875 174.90105 42.28125 174.90105ZM42.28125 183.22917L46.984375 174.1823L47.84375 174.1823L43.15625 183.22917L42.28125 183.22917ZM46.0 180.90105Q46.0 179.97917 46.453125 179.33855Q46.921875 178.69792 47.8125 178.69792Q48.625 178.69792 49.15625 179.27605Q49.6875 179.83855 49.6875 180.96355Q49.6875 182.0573 49.140625 182.65105Q48.609375 183.22917 47.8125 183.22917Q47.046875 183.22917 46.515625 182.65105Q46.0 182.07292 46.0 180.90105ZM47.84375 179.41667Q47.4375 179.41667 47.171875 179.76042Q46.921875 180.10417 46.921875 181.01042Q46.921875 181.82292 47.1875 182.16667Q47.453125 182.51042 47.84375 182.51042Q48.234375 182.51042 48.5 182.16667Q48.765625 181.82292 48.765625 180.91667Q48.765625 180.08855 48.5 179.76042Q48.234375 179.41667 47.84375 179.41667Z" fill-rule="nonzero"/><path stroke="#757575" stroke-width="1.0" stroke-linecap="butt" d="M22.75 170.41667L193.83333 170.41667L265.43695 118.05457" fill-rule="nonzero"/><path fill="#9e9e9e" d="M267.43695 118.05457C267.43695 116.950005 266.54153 116.05457 265.43695 116.05457C264.3324 116.05457 263.43695 116.950005 263.43695 118.05457C263.43695 119.15915 264.3324 120.05457 265.43695 120.05457C266.54153 120.05457 267.43695 119.15915 267.43695 118.05457" fill-rule="nonzero"/><path fill="#1a1a1a" d="M23.734375 196.91667L23.734375 188.32292L29.53125 188.32292L29.53125 189.33855L24.875 189.33855L24.875 191.9948L28.90625 191.9948L28.90625 193.01042L24.875 193.01042L24.875 196.91667L23.734375 196.91667ZM34.609375 196.15105Q34.015625 196.65105 33.46875 196.85417Q32.9375 197.0573 32.3125 197.0573Q31.28125 197.0573 30.734375 196.5573Q30.1875 196.0573 30.1875 195.27605Q30.1875 194.82292 30.390625 194.44792Q30.59375 194.0573 30.9375 193.83855Q31.28125 193.60417 31.703125 193.4948Q32.0 193.40105 32.640625 193.32292Q33.90625 193.1823 34.515625 192.96355Q34.515625 192.7448 34.515625 192.69792Q34.515625 192.04167 34.21875 191.77605Q33.8125 191.4323 33.015625 191.4323Q32.28125 191.4323 31.921875 191.69792Q31.5625 191.94792 31.390625 192.60417L30.359375 192.46355Q30.5 191.8073 30.828125 191.40105Q31.15625 190.9948 31.765625 190.77605Q32.375 190.5573 33.171875 190.5573Q33.96875 190.5573 34.46875 190.7448Q34.96875 190.9323 35.203125 191.21355Q35.4375 191.4948 35.53125 191.9323Q35.578125 192.19792 35.578125 192.90105L35.578125 194.3073Q35.578125 195.77605 35.640625 196.16667Q35.71875 196.5573 35.921875 196.91667L34.8125 196.91667Q34.65625 196.58855 34.609375 196.15105ZM34.515625 193.79167Q33.9375 194.02605 32.796875 194.19792Q32.140625 194.29167 31.875 194.41667Q31.609375 194.52605 31.453125 194.7448Q31.3125 194.96355 31.3125 195.2448Q31.3125 195.66667 31.625 195.94792Q31.953125 196.22917 32.5625 196.22917Q33.171875 196.22917 33.640625 195.96355Q34.125 195.69792 34.34375 195.22917Q34.515625 194.8698 34.515625 194.1823L34.515625 193.79167ZM37.125 195.0573L38.15625 194.90105Q38.25 195.52605 38.640625 195.85417Q39.046875 196.1823 39.78125 196.1823Q40.5 196.1823 40.84375 195.90105Q41.203125 195.60417 41.203125 195.19792Q41.203125 194.83855 40.890625 194.63542Q40.671875 194.4948 39.8125 194.27605Q38.65625 193.97917 38.203125 193.77605Q37.765625 193.5573 37.53125 193.1823Q37.296875 192.8073 37.296875 192.33855Q37.296875 191.9323 37.484375 191.57292Q37.671875 191.21355 38.0 190.97917Q38.25 190.8073 38.671875 190.6823Q39.09375 190.5573 39.59375 190.5573Q40.3125 190.5573 40.859375 190.77605Q41.421875 190.97917 41.6875 191.33855Q41.953125 191.69792 42.046875 192.29167L41.015625 192.4323Q40.953125 191.96355 40.609375 191.69792Q40.28125 191.41667 39.65625 191.41667Q38.9375 191.41667 38.625 191.66667Q38.3125 191.90105 38.3125 192.22917Q38.3125 192.4323 38.4375 192.58855Q38.578125 192.76042 38.84375 192.8698Q39.0 192.9323 39.78125 193.13542Q40.90625 193.44792 41.34375 193.63542Q41.78125 193.82292 42.03125 194.1823Q42.28125 194.54167 42.28125 195.08855Q42.28125 195.6198 41.96875 196.08855Q41.671875 196.54167 41.09375 196.8073Q40.515625 197.0573 39.78125 197.0573Q38.5625 197.0573 37.921875 196.5573Q37.296875 196.04167 37.125 195.0573ZM46.84375 195.97917L47.0 196.90105Q46.546875 196.9948 46.203125 196.9948Q45.625 196.9948 45.3125 196.82292Q45.0 196.63542 44.859375 196.33855Q44.734375 196.04167 44.734375 195.08855L44.734375 191.51042L43.96875 191.51042L43.96875 190.69792L44.734375 190.69792L44.734375 189.15105L45.78125 188.52605L45.78125 190.69792L46.84375 190.69792L46.84375 191.51042L45.78125 191.51042L45.78125 195.15105Q45.78125 195.60417 45.828125 195.72917Q45.890625 195.85417 46.015625 195.9323Q46.140625 196.01042 46.375 196.01042Q46.5625 196.01042 46.84375 195.97917ZM47.515625 196.91667L47.515625 188.32292L48.578125 188.32292L48.578125 196.91667L47.515625 196.91667ZM50.5 199.3073L50.375 198.32292Q50.71875 198.41667 50.984375 198.41667Q51.328125 198.41667 51.53125 198.29167Q51.75 198.1823 51.890625 197.97917Q51.984375 197.8073 52.21875 197.1823Q52.234375 197.10417 52.3125 196.9323L49.9375 190.69792L51.078125 190.69792L52.375 194.29167Q52.625 194.97917 52.828125 195.7448Q53.015625 195.01042 53.265625 194.32292L54.59375 190.69792L55.640625 190.69792L53.28125 197.02605Q52.890625 198.04167 52.6875 198.4323Q52.40625 198.96355 52.03125 199.19792Q51.671875 199.44792 51.171875 199.44792Q50.875 199.44792 50.5 199.3073Z" fill-rule="nonzero"/><path fill="#9e9e9e" d="M23.25 211.66667L24.359375 211.57292Q24.484375 212.38542 24.921875 212.79167Q25.375 213.19792 26.015625 213.19792Q26.765625 213.19792 27.296875 212.6198Q27.828125 212.04167 27.828125 211.10417Q27.828125 210.19792 27.3125 209.6823Q26.8125 209.15105 25.984375 209.15105Q25.484375 209.15105 25.0625 209.38542Q24.65625 209.6198 24.421875 209.97917L23.4375 209.85417L24.265625 205.44792L28.546875 205.44792L28.546875 206.44792L25.109375 206.44792L24.65625 208.76042Q25.421875 208.21355 26.265625 208.21355Q27.390625 208.21355 28.15625 208.9948Q28.9375 209.77605 28.9375 211.01042Q28.9375 212.16667 28.265625 213.02605Q27.4375 214.0573 26.015625 214.0573Q24.84375 214.0573 24.09375 213.40105Q23.359375 212.7448 23.25 211.66667ZM30.84375 213.91667L30.84375 212.71355L32.046875 212.71355L32.046875 213.91667L30.84375 213.91667ZM33.3125 206.44792L33.3125 205.4323L38.875 205.4323L38.875 206.26042Q38.0625 207.13542 37.25 208.58855Q36.453125 210.02605 36.015625 211.5573Q35.6875 212.63542 35.609375 213.91667L34.515625 213.91667Q34.53125 212.90105 34.90625 211.46355Q35.296875 210.02605 36.0 208.69792Q36.71875 207.3698 37.53125 206.44792L33.3125 206.44792ZM40.453125 207.38542Q40.453125 206.46355 40.90625 205.82292Q41.375 205.1823 42.25 205.1823Q43.0625 205.1823 43.59375 205.76042Q44.125 206.33855 44.125 207.44792Q44.125 208.54167 43.578125 209.13542Q43.046875 209.71355 42.265625 209.71355Q41.484375 209.71355 40.96875 209.13542Q40.453125 208.5573 40.453125 207.38542ZM42.28125 205.90105Q41.890625 205.90105 41.625 206.2448Q41.375 206.58855 41.375 207.4948Q41.375 208.32292 41.625 208.66667Q41.890625 208.9948 42.28125 208.9948Q42.6875 208.9948 42.9375 208.65105Q43.203125 208.3073 43.203125 207.41667Q43.203125 206.57292 42.9375 206.2448Q42.671875 205.90105 42.28125 205.90105ZM42.28125 214.22917L46.984375 205.1823L47.84375 205.1823L43.15625 214.22917L42.28125 214.22917ZM46.0 211.90105Q46.0 210.97917 46.453125 210.33855Q46.921875 209.69792 47.8125 209.69792Q48.625 209.69792 49.15625 210.27605Q49.6875 210.83855 49.6875 211.96355Q49.6875 213.0573 49.140625 213.65105Q48.609375 214.22917 47.8125 214.22917Q47.046875 214.22917 46.515625 213.65105Q46.0 213.07292 46.0 211.90105ZM47.84375 210.41667Q47.4375 210.41667 47.171875 210.76042Q46.921875 211.10417 46.921875 212.01042Q46.921875 212.82292 47.1875 213.16667Q47.453125 213.51042 47.84375 213.51042Q48.234375 213.51042 48.5 213.16667Q48.765625 212.82292 48.765625 211.91667Q48.765625 211.08855 48.5 210.76042Q48.234375 210.41667 47.84375 210.41667Z" fill-rule="nonzero"/><path stroke="#757575" stroke-width="1.0" stroke-linecap="butt" d="M22.75 201.41667L193.83333 201.41667L228.76492 166.24806" fill-rule="nonzero"/><path fill="#9e9e9e" d="M230.76492 166.24806C230.76492 165.14348 229.86949 164.24806 228.76492 164.24806C227.66035 164.24806 226.76492 165.14348 226.76492 166.24806C226.76492 167.35263 227.66035 168.24806 228.76492 168.24806C229.86949 168.24806 230.76492 167.35263 230.76492 166.24806" fill-rule="nonzero"/><path fill="#1a1a1a" d="M697.3125 381.01706L698.4375 381.31393Q698.0781 382.70456 697.15625 383.43893Q696.2344 384.1733 694.8906 384.1733Q693.5 384.1733 692.625 383.6108Q691.75 383.0483 691.2969 381.9858Q690.84375 380.90768 690.84375 379.6733Q690.84375 378.32956 691.3594 377.32956Q691.875 376.32956 692.8125 375.81393Q693.7656 375.2983 694.90625 375.2983Q696.1875 375.2983 697.0625 375.95456Q697.9531 376.6108 698.2969 377.7983L697.1719 378.06393Q696.875 377.12643 696.2969 376.70456Q695.7344 376.26706 694.875 376.26706Q693.8906 376.26706 693.21875 376.75143Q692.5625 377.22018 692.28125 378.01706Q692.0156 378.81393 692.0156 379.6733Q692.0156 380.76706 692.3281 381.57956Q692.65625 382.39206 693.3281 382.7983Q694.0 383.20456 694.7969 383.20456Q695.75 383.20456 696.40625 382.65768Q697.0781 382.1108 697.3125 381.01706ZM700.0156 384.03268L700.0156 375.43893L701.0781 375.43893L701.0781 384.03268L700.0156 384.03268ZM702.65625 380.9233Q702.65625 379.18893 703.6094 378.3608Q704.40625 377.6733 705.5625 377.6733Q706.84375 377.6733 707.65625 378.51706Q708.4844 379.34518 708.4844 380.82956Q708.4844 382.03268 708.125 382.72018Q707.7656 383.40768 707.0625 383.7983Q706.375 384.1733 705.5625 384.1733Q704.2656 384.1733 703.4531 383.34518Q702.65625 382.50143 702.65625 380.9233ZM703.7344 380.9233Q703.7344 382.1108 704.25 382.70456Q704.78125 383.2983 705.5625 383.2983Q706.3594 383.2983 706.875 382.70456Q707.3906 382.1108 707.3906 380.89206Q707.3906 379.7358 706.8594 379.14206Q706.34375 378.5483 705.5625 378.5483Q704.78125 378.5483 704.25 379.14206Q703.7344 379.72018 703.7344 380.9233ZM714.125 384.03268L714.125 383.1108Q713.3906 384.1733 712.1406 384.1733Q711.59375 384.1733 711.1094 383.97018Q710.6406 383.75143 710.40625 383.43893Q710.1719 383.1108 710.0781 382.64206Q710.0156 382.34518 710.0156 381.65768L710.0156 377.81393L711.0781 377.81393L711.0781 381.26706Q711.0781 382.07956 711.1406 382.37643Q711.2344 382.78268 711.5469 383.03268Q711.875 383.26706 712.3594 383.26706Q712.8281 383.26706 713.2344 383.03268Q713.65625 382.78268 713.8281 382.3608Q714.0156 381.93893 714.0156 381.14206L714.0156 377.81393L715.0625 377.81393L715.0625 384.03268L714.125 384.03268ZM721.0781 384.03268L721.0781 383.25143Q720.4844 384.1733 719.34375 384.1733Q718.59375 384.1733 717.96875 383.76706Q717.34375 383.34518 717.0 382.6108Q716.65625 381.87643 716.65625 380.9233Q716.65625 380.00143 716.96875 379.2358Q717.28125 378.47018 717.90625 378.07956Q718.53125 377.6733 719.2969 377.6733Q719.8594 377.6733 720.2969 377.90768Q720.7344 378.14206 721.0156 378.51706L721.0156 375.43893L722.0625 375.43893L722.0625 384.03268L721.0781 384.03268ZM717.75 380.9233Q717.75 382.12643 718.25 382.72018Q718.75 383.2983 719.4375 383.2983Q720.125 383.2983 720.6094 382.7358Q721.09375 382.1733 721.09375 381.01706Q721.09375 379.7358 720.59375 379.14206Q720.1094 378.5483 719.3906 378.5483Q718.6875 378.5483 718.21875 379.12643Q717.75 379.68893 717.75 380.9233ZM724.2969 384.03268L724.2969 378.62643L723.3594 378.62643L723.3594 377.81393L724.2969 377.81393L724.2969 377.14206Q724.2969 376.51706 724.40625 376.22018Q724.5625 375.7983 724.9375 375.5483Q725.3281 375.2983 726.0156 375.2983Q726.46875 375.2983 727.0 375.40768L726.84375 376.31393Q726.5156 376.26706 726.21875 376.26706Q725.7344 376.26706 725.53125 376.47018Q725.34375 376.6733 725.34375 377.2358L725.34375 377.81393L726.5625 377.81393L726.5625 378.62643L725.34375 378.62643L725.34375 384.03268L724.2969 384.03268ZM727.0156 384.03268L727.0156 375.43893L728.0781 375.43893L728.0781 384.03268L727.0156 384.03268ZM734.1094 383.26706Q733.5156 383.76706 732.96875 383.97018Q732.4375 384.1733 731.8125 384.1733Q730.78125 384.1733 730.2344 383.6733Q729.6875 383.1733 729.6875 382.39206Q729.6875 381.93893 729.8906 381.56393Q730.09375 381.1733 730.4375 380.95456Q730.78125 380.72018 731.2031 380.6108Q731.5 380.51706 732.1406 380.43893Q733.40625 380.2983 734.0156 380.07956Q734.0156 379.8608 734.0156 379.81393Q734.0156 379.15768 733.71875 378.89206Q733.3125 378.5483 732.5156 378.5483Q731.78125 378.5483 731.4219 378.81393Q731.0625 379.06393 730.8906 379.72018L729.8594 379.57956Q730.0 378.9233 730.3281 378.51706Q730.65625 378.1108 731.2656 377.89206Q731.875 377.6733 732.6719 377.6733Q733.46875 377.6733 733.96875 377.8608Q734.46875 378.0483 734.7031 378.32956Q734.9375 378.6108 735.03125 379.0483Q735.0781 379.31393 735.0781 380.01706L735.0781 381.4233Q735.0781 382.89206 735.1406 383.28268Q735.21875 383.6733 735.4219 384.03268L734.3125 384.03268Q734.15625 383.70456 734.1094 383.26706ZM734.0156 380.90768Q733.4375 381.14206 732.2969 381.31393Q731.6406 381.40768 731.375 381.53268Q731.1094 381.64206 730.9531 381.8608Q730.8125 382.07956 730.8125 382.3608Q730.8125 382.78268 731.125 383.06393Q731.4531 383.34518 732.0625 383.34518Q732.6719 383.34518 733.1406 383.07956Q733.625 382.81393 733.84375 382.34518Q734.0156 381.9858 734.0156 381.2983L734.0156 380.90768ZM737.03125 384.03268L737.03125 377.81393L737.9844 377.81393L737.9844 378.75143Q738.34375 378.09518 738.6406 377.89206Q738.9531 377.6733 739.3281 377.6733Q739.8594 377.6733 740.40625 378.00143L740.0469 378.9858Q739.65625 378.75143 739.28125 378.75143Q738.9219 378.75143 738.6406 378.97018Q738.375 379.1733 738.2656 379.5483Q738.0781 380.1108 738.0781 380.76706L738.0781 384.03268L737.03125 384.03268ZM745.2969 382.03268L746.3906 382.15768Q746.1406 383.1108 745.4375 383.64206Q744.7344 384.1733 743.65625 384.1733Q742.2969 384.1733 741.4844 383.32956Q740.6875 382.4858 740.6875 380.97018Q740.6875 379.40768 741.5 378.5483Q742.3125 377.6733 743.59375 377.6733Q744.84375 377.6733 745.625 378.51706Q746.4219 379.3608 746.4219 380.90768Q746.4219 381.00143 746.4219 381.18893L741.78125 381.18893Q741.84375 382.22018 742.3594 382.76706Q742.875 383.2983 743.65625 383.2983Q744.2344 383.2983 744.6406 383.00143Q745.0625 382.68893 745.2969 382.03268ZM741.84375 380.32956L745.3125 380.32956Q745.25 379.53268 744.9219 379.14206Q744.40625 378.53268 743.6094 378.53268Q742.875 378.53268 742.375 379.01706Q741.8906 379.50143 741.84375 380.32956Z" fill-rule="nonzero"/><path fill="#9e9e9e" d="M712.8125 393.56393L712.8125 392.5483L718.375 392.5483L718.375 393.37643Q717.5625 394.25143 716.75 395.70456Q715.9531 397.14206 715.5156 398.6733Q715.1875 399.75143 715.1094 401.03268L714.0156 401.03268Q714.03125 400.01706 714.40625 398.57956Q714.7969 397.14206 715.5 395.81393Q716.21875 394.4858 717.03125 393.56393L712.8125 393.56393ZM719.90625 399.0483L720.9219 398.95456Q721.0469 399.6733 721.40625 400.00143Q721.78125 400.31393 722.34375 400.31393Q722.8281 400.31393 723.1875 400.09518Q723.5625 399.8608 723.7969 399.50143Q724.03125 399.12643 724.1875 398.50143Q724.34375 397.8608 724.34375 397.20456Q724.34375 397.12643 724.34375 396.9858Q724.03125 397.4858 723.4844 397.81393Q722.9375 398.12643 722.2969 398.12643Q721.21875 398.12643 720.4844 397.3608Q719.75 396.57956 719.75 395.31393Q719.75 394.00143 720.5156 393.20456Q721.2969 392.40768 722.4531 392.40768Q723.28125 392.40768 723.96875 392.8608Q724.6719 393.31393 725.03125 394.15768Q725.3906 394.9858 725.3906 396.56393Q725.3906 398.20456 725.03125 399.18893Q724.6875 400.15768 723.96875 400.6733Q723.2656 401.1733 722.3281 401.1733Q721.3125 401.1733 720.6719 400.62643Q720.03125 400.06393 719.90625 399.0483ZM724.21875 395.25143Q724.21875 394.34518 723.7344 393.81393Q723.2656 393.28268 722.5781 393.28268Q721.875 393.28268 721.34375 393.8608Q720.8281 394.4233 720.8281 395.34518Q720.8281 396.15768 721.3281 396.6733Q721.8281 397.18893 722.5469 397.18893Q723.28125 397.18893 723.75 396.6733Q724.21875 396.15768 724.21875 395.25143ZM727.34375 401.03268L727.34375 399.82956L728.5469 399.82956L728.5469 401.03268L727.34375 401.03268ZM729.8125 393.56393L729.8125 392.5483L735.375 392.5483L735.375 393.37643Q734.5625 394.25143 733.75 395.70456Q732.9531 397.14206 732.5156 398.6733Q732.1875 399.75143 732.1094 401.03268L731.0156 401.03268Q731.03125 400.01706 731.40625 398.57956Q731.7969 397.14206 732.5 395.81393Q733.21875 394.4858 734.03125 393.56393L729.8125 393.56393ZM736.9531 394.50143Q736.9531 393.57956 737.40625 392.93893Q737.875 392.2983 738.75 392.2983Q739.5625 392.2983 740.09375 392.87643Q740.625 393.45456 740.625 394.56393Q740.625 395.65768 740.0781 396.25143Q739.5469 396.82956 738.7656 396.82956Q737.9844 396.82956 737.46875 396.25143Q736.9531 395.6733 736.9531 394.50143ZM738.78125 393.01706Q738.3906 393.01706 738.125 393.3608Q737.875 393.70456 737.875 394.6108Q737.875 395.43893 738.125 395.78268Q738.3906 396.1108 738.78125 396.1108Q739.1875 396.1108 739.4375 395.76706Q739.7031 395.4233 739.7031 394.53268Q739.7031 393.68893 739.4375 393.3608Q739.1719 393.01706 738.78125 393.01706ZM738.78125 401.34518L743.4844 392.2983L744.34375 392.2983L739.65625 401.34518L738.78125 401.34518ZM742.5 399.01706Q742.5 398.09518 742.9531 397.45456Q743.4219 396.81393 744.3125 396.81393Q745.125 396.81393 745.65625 397.39206Q746.1875 397.95456 746.1875 399.07956Q746.1875 400.1733 745.6406 400.76706Q745.1094 401.34518 744.3125 401.34518Q743.5469 401.34518 743.0156 400.76706Q742.5 400.18893 742.5 399.01706ZM744.34375 397.53268Q743.9375 397.53268 743.6719 397.87643Q743.4219 398.22018 743.4219 399.12643Q743.4219 399.93893 743.6875 400.28268Q743.9531 400.62643 744.34375 400.62643Q744.7344 400.62643 745.0 400.28268Q745.2656 399.93893 745.2656 399.03268Q745.2656 398.20456 745.0 397.87643Q744.7344 397.53268 744.34375 397.53268Z" fill-rule="nonzero"/><path stroke="#757575" stroke-width="1.0" stroke-linecap="butt" d="M747.25 388.53268L576.1667 388.53268L489.5745 388.53268" fill-rule="nonzero"/><path fill="#9e9e9e" d="M491.5745 388.53268C491.5745 387.42813 490.67905 386.53268 489.5745 386.53268C488.4699 386.53268 487.5745 387.42813 487.5745 388.53268C487.5745 389.63727 488.4699 390.53268 489.5745 390.53268C490.67905 390.53268 491.5745 389.63727 491.5745 388.53268" fill-rule="nonzero"/><path fill="#757575" d="M23.65625 37.15625L25.4375 37.0Q25.5625 38.0625 26.015625 38.75Q26.484375 39.4375 27.453125 39.875Q28.4375 40.296875 29.671875 40.296875Q30.75 40.296875 31.578125 39.984375Q32.40625 39.65625 32.8125 39.09375Q33.21875 38.53125 33.21875 37.859375Q33.21875 37.1875 32.828125 36.6875Q32.4375 36.1875 31.546875 35.84375Q30.96875 35.609375 28.984375 35.140625Q27.015625 34.671875 26.234375 34.25Q25.203125 33.71875 24.703125 32.921875Q24.203125 32.125 24.203125 31.140625Q24.203125 30.046875 24.8125 29.109375Q25.421875 28.171875 26.609375 27.6875Q27.796875 27.1875 29.234375 27.1875Q30.828125 27.1875 32.046875 27.703125Q33.265625 28.21875 33.90625 29.21875Q34.5625 30.203125 34.609375 31.46875L32.796875 31.609375Q32.65625 30.25 31.8125 29.5625Q30.96875 28.859375 29.3125 28.859375Q27.59375 28.859375 26.796875 29.5Q26.015625 30.125 26.015625 31.0Q26.015625 31.78125 26.578125 32.28125Q27.125 32.78125 29.4375 33.296875Q31.75 33.8125 32.609375 34.203125Q33.859375 34.78125 34.453125 35.671875Q35.046875 36.546875 35.046875 37.703125Q35.046875 38.84375 34.390625 39.859375Q33.734375 40.875 32.5 41.4375Q31.28125 42.0 29.75 42.0Q27.8125 42.0 26.5 41.4375Q25.1875 40.859375 24.4375 39.71875Q23.6875 38.578125 23.65625 37.15625ZM37.0625 41.75L37.0625 27.4375L38.828125 27.4375L38.828125 32.5625Q40.0625 31.140625 41.9375 31.140625Q43.078125 31.140625 43.921875 31.59375Q44.78125 32.046875 45.140625 32.859375Q45.515625 33.65625 45.515625 35.171875L45.515625 41.75L43.765625 41.75L43.765625 35.171875Q43.765625 33.859375 43.1875 33.265625Q42.609375 32.65625 41.578125 32.65625Q40.796875 32.65625 40.09375 33.0625Q39.40625 33.46875 39.109375 34.171875Q38.828125 34.859375 38.828125 36.078125L38.828125 41.75L37.0625 41.75ZM53.84375 40.46875Q52.859375 41.296875 51.953125 41.640625Q51.046875 41.984375 50.015625 41.984375Q48.3125 41.984375 47.390625 41.15625Q46.46875 40.3125 46.46875 39.015625Q46.46875 38.25 46.8125 37.625Q47.171875 37.0 47.734375 36.625Q48.296875 36.234375 49.0 36.03125Q49.515625 35.90625 50.5625 35.765625Q52.6875 35.515625 53.6875 35.171875Q53.703125 34.8125 53.703125 34.703125Q53.703125 33.640625 53.203125 33.1875Q52.53125 32.59375 51.203125 32.59375Q49.953125 32.59375 49.359375 33.03125Q48.78125 33.46875 48.5 34.578125L46.78125 34.34375Q47.015625 33.234375 47.546875 32.5625Q48.078125 31.875 49.09375 31.515625Q50.109375 31.140625 51.453125 31.140625Q52.78125 31.140625 53.609375 31.453125Q54.4375 31.765625 54.828125 32.25Q55.21875 32.71875 55.375 33.4375Q55.46875 33.890625 55.46875 35.0625L55.46875 37.40625Q55.46875 39.859375 55.578125 40.515625Q55.6875 41.15625 56.03125 41.75L54.1875 41.75Q53.921875 41.203125 53.84375 40.46875ZM53.6875 36.546875Q52.734375 36.9375 50.8125 37.203125Q49.734375 37.359375 49.28125 37.5625Q48.84375 37.75 48.59375 38.125Q48.34375 38.5 48.34375 38.96875Q48.34375 39.671875 48.875 40.140625Q49.40625 40.609375 50.4375 40.609375Q51.453125 40.609375 52.234375 40.171875Q53.03125 39.71875 53.40625 38.953125Q53.6875 38.34375 53.6875 37.1875L53.6875 36.546875ZM58.046875 41.75L58.046875 31.375L59.625 31.375L59.625 32.953125Q60.234375 31.84375 60.75 31.5Q61.265625 31.140625 61.875 31.140625Q62.765625 31.140625 63.6875 31.703125L63.078125 33.34375Q62.4375 32.953125 61.796875 32.953125Q61.21875 32.953125 60.75 33.3125Q60.296875 33.65625 60.09375 34.265625Q59.8125 35.203125 59.8125 36.3125L59.8125 41.75L58.046875 41.75ZM72.171875 38.40625L73.984375 38.640625Q73.5625 40.21875 72.390625 41.109375Q71.234375 41.984375 69.421875 41.984375Q67.15625 41.984375 65.8125 40.59375Q64.484375 39.1875 64.484375 36.65625Q64.484375 34.03125 65.828125 32.59375Q67.171875 31.140625 69.328125 31.140625Q71.40625 31.140625 72.71875 32.5625Q74.046875 33.96875 74.046875 36.546875Q74.046875 36.703125 74.03125 37.015625L66.296875 37.015625Q66.390625 38.71875 67.265625 39.625Q68.140625 40.53125 69.4375 40.53125Q70.40625 40.53125 71.078125 40.03125Q71.765625 39.515625 72.171875 38.40625ZM66.390625 35.5625L72.1875 35.5625Q72.078125 34.265625 71.53125 33.609375Q70.6875 32.59375 69.34375 32.59375Q68.140625 32.59375 67.3125 33.40625Q66.484375 34.203125 66.390625 35.5625Z" fill-rule="nonzero"/></svg>